<svg id="eUa3TqnfOp81" xmlns="http://www.w3.org/2000/svg" xmlns:xlink="http://www.w3.org/1999/xlink" viewBox="0 0 640 480" shape-rendering="geometricPrecision" text-rendering="geometricPrecision"><rect width="0" height="270.384068" rx="0" ry="0" transform="translate(83.072546 65.547653)" fill="#d2dbed" stroke-width="0"/><path d="M477.11495,479.618169q-250.92276,24.123035-254.753642,8.041011c-3.830882-16.082024,43.09742-60.977673,90.025723-83.090456s74.702197-42.885394,105.349251-83.090454s59.378668-67.00843,59.378668-101.852815s0,8.041013-36.393377,24.123035-17.238968,13.401685,36.393377-69.688769s74.702196-139.377536,55.547786-29.483709-5.746322,150.098886,21.06985,72.369106s65.12499,24.123033,19.154409,88.451128-55.547786,113.914332-1.915441,77.059696s72.786755,30.153794,22.985291,75.719527-97.687486,13.401689-116.841895,21.4427Z" transform="translate(-64.182077-49.319892)" fill="#ffc326" stroke="#3f5787" stroke-width="1.28" stroke-linecap="round" stroke-linejoin="round"/></svg>