<svg xmlns="http://www.w3.org/2000/svg" xmlns:xlink="http://www.w3.org/1999/xlink" viewBox="0 0 280.24 276.91"><defs><style>.cls-1{isolation:isolate;}.cls-14,.cls-2,.cls-3{fill:#fff;}.cls-2,.cls-24,.cls-3{mix-blend-mode:overlay;}.cls-13,.cls-24,.cls-3{opacity:0.8;}.cls-4,.cls-6{opacity:0.1;}.cls-10,.cls-4,.cls-5,.cls-6,.cls-7,.cls-8,.cls-9{mix-blend-mode:color-dodge;}.cls-4{fill:url(#radial-gradient);}.cls-5{fill:url(#radial-gradient-2);}.cls-6{fill:url(#radial-gradient-3);}.cls-7{fill:url(#radial-gradient-4);}.cls-8{fill:url(#radial-gradient-5);}.cls-9{fill:url(#radial-gradient-6);}.cls-10{fill:url(#radial-gradient-7);}.cls-11{fill:#053a60;}.cls-12{fill:url(#linear-gradient);}.cls-15{fill:url(#linear-gradient-2);}.cls-16{fill:url(#linear-gradient-3);}.cls-17{fill:url(#linear-gradient-4);}.cls-18{fill:url(#linear-gradient-5);}.cls-19{fill:#25a9f3;}.cls-20{fill:url(#linear-gradient-6);}.cls-21{fill:url(#linear-gradient-7);}.cls-22{fill:url(#linear-gradient-8);}.cls-23{fill:url(#linear-gradient-9);}.cls-25{fill:#90ff26;}.cls-26{fill:url(#linear-gradient-10);}.cls-27{fill:url(#linear-gradient-11);}.cls-28{fill:url(#linear-gradient-12);}.cls-29{fill:url(#linear-gradient-13);}.cls-30{fill:url(#linear-gradient-14);}.cls-31{fill:url(#linear-gradient-15);}.cls-32{fill:url(#linear-gradient-16);}.cls-33{fill:url(#linear-gradient-17);}.cls-34{fill:url(#linear-gradient-18);}.cls-35{fill:url(#linear-gradient-19);}.cls-36{fill:url(#linear-gradient-20);}.cls-37{fill:url(#linear-gradient-21);}.cls-38{fill:url(#linear-gradient-22);}.cls-39{fill:url(#linear-gradient-23);}.cls-40{fill:url(#linear-gradient-24);}.cls-41{fill:url(#linear-gradient-25);}.cls-42{fill:url(#linear-gradient-26);}.cls-43{fill:url(#linear-gradient-27);}.cls-44{fill:url(#linear-gradient-28);}.cls-45{fill:url(#linear-gradient-29);}.cls-46{fill:url(#linear-gradient-30);}.cls-47{fill:#001950;}.cls-48{fill:url(#linear-gradient-31);}.cls-49{fill:url(#linear-gradient-32);}.cls-50{fill:url(#linear-gradient-33);}</style><radialGradient id="radial-gradient" cx="10680.26" cy="23073.27" r="266.75" gradientTransform="matrix(-0.1, -0.03, 0.03, -0.1, 645.01, 2597.48)" gradientUnits="userSpaceOnUse"><stop offset="0.68" stop-color="#000202"/><stop offset="0.74" stop-color="#020404"/><stop offset="0.77" stop-color="#090b0b"/><stop offset="0.78" stop-color="#141616"/><stop offset="0.79" stop-color="#252727"/><stop offset="0.8" stop-color="#3b3d3d"/><stop offset="0.81" stop-color="#575858"/><stop offset="0.82" stop-color="#777878"/><stop offset="0.83" stop-color="#9d9e9e"/><stop offset="0.84" stop-color="#c8c8c8"/><stop offset="0.84" stop-color="#f6f6f6"/><stop offset="0.84" stop-color="#fff"/><stop offset="0.85" stop-color="#e6e6e6"/><stop offset="0.87" stop-color="#b1b1b1"/><stop offset="0.89" stop-color="#818181"/><stop offset="0.9" stop-color="#5a5a5a"/><stop offset="0.92" stop-color="#393939"/><stop offset="0.94" stop-color="#202020"/><stop offset="0.96" stop-color="#0e0e0e"/><stop offset="0.98" stop-color="#030303"/><stop offset="1"/></radialGradient><radialGradient id="radial-gradient-2" cx="-96.35" cy="-4819.52" r="1.7" gradientTransform="matrix(10.26, 0.02, -0.02, 10.14, 1109.68, 48989.8)" gradientUnits="userSpaceOnUse"><stop offset="0" stop-color="#a6d5b4"/><stop offset="0.13" stop-color="#88ae93"/><stop offset="0.36" stop-color="#58715f"/><stop offset="0.57" stop-color="#324036"/><stop offset="0.75" stop-color="#171d19"/><stop offset="0.9" stop-color="#060807"/><stop offset="1"/></radialGradient><radialGradient id="radial-gradient-3" cx="10310.42" cy="21688.54" r="266.75" xlink:href="#radial-gradient"/><radialGradient id="radial-gradient-4" cx="-96.33" cy="-4805.48" r="1.7" xlink:href="#radial-gradient-2"/><radialGradient id="radial-gradient-5" cx="-109.11" cy="-4809.54" r="1.7" xlink:href="#radial-gradient-2"/><radialGradient id="radial-gradient-6" cx="-114.96" cy="-4809.53" r="1.7" xlink:href="#radial-gradient-2"/><radialGradient id="radial-gradient-7" cx="-114.97" cy="-4816.25" r="1.7" xlink:href="#radial-gradient-2"/><linearGradient id="linear-gradient" x1="39.34" y1="78.08" x2="151.15" y2="180.58" gradientUnits="userSpaceOnUse"><stop offset="0" stop-color="#003786"/><stop offset="1" stop-color="#0195c3"/></linearGradient><linearGradient id="linear-gradient-2" x1="85.74" y1="166.59" x2="122.84" y2="166.59" xlink:href="#linear-gradient"/><linearGradient id="linear-gradient-3" x1="36.08" y1="137.62" x2="172.5" y2="137.62" xlink:href="#linear-gradient"/><linearGradient id="linear-gradient-4" x1="156.74" y1="174.59" x2="262.95" y2="174.59" gradientUnits="userSpaceOnUse"><stop offset="0" stop-color="#6369b4"/><stop offset="1" stop-color="#310d72"/></linearGradient><linearGradient id="linear-gradient-5" x1="156.74" y1="141.57" x2="262.95" y2="141.57" xlink:href="#linear-gradient"/><linearGradient id="linear-gradient-6" x1="209.51" y1="112.63" x2="210.23" y2="189.9" xlink:href="#linear-gradient"/><linearGradient id="linear-gradient-7" x1="181.47" y1="112.89" x2="182.19" y2="190.17" xlink:href="#linear-gradient"/><linearGradient id="linear-gradient-8" x1="170.32" y1="150.78" x2="170.96" y2="218.84" xlink:href="#linear-gradient"/><linearGradient id="linear-gradient-9" x1="231.72" y1="112.42" x2="232.44" y2="189.7" xlink:href="#linear-gradient"/><linearGradient id="linear-gradient-10" x1="231.56" y1="112.42" x2="232.29" y2="189.7" xlink:href="#linear-gradient"/><linearGradient id="linear-gradient-11" x1="192.73" y1="150.78" x2="193.37" y2="218.84" xlink:href="#linear-gradient"/><linearGradient id="linear-gradient-12" x1="215.14" y1="150.78" x2="215.78" y2="218.84" xlink:href="#linear-gradient"/><linearGradient id="linear-gradient-13" x1="237.55" y1="150.78" x2="238.19" y2="218.84" xlink:href="#linear-gradient"/><linearGradient id="linear-gradient-14" x1="138.6" y1="155.52" x2="171.97" y2="242.73" xlink:href="#linear-gradient-4"/><linearGradient id="linear-gradient-15" x1="143.04" y1="179.39" x2="170.55" y2="179.39" xlink:href="#linear-gradient"/><linearGradient id="linear-gradient-16" x1="146.89" y1="200.9" x2="147.84" y2="214.8" xlink:href="#linear-gradient"/><linearGradient id="linear-gradient-17" x1="156.34" y1="200.25" x2="157.3" y2="214.15" xlink:href="#linear-gradient"/><linearGradient id="linear-gradient-18" x1="165.8" y1="199.6" x2="166.76" y2="213.5" xlink:href="#linear-gradient"/><linearGradient id="linear-gradient-19" x1="146.89" y1="209.58" x2="147.84" y2="223.48" xlink:href="#linear-gradient"/><linearGradient id="linear-gradient-20" x1="156.34" y1="208.93" x2="157.3" y2="222.83" xlink:href="#linear-gradient"/><linearGradient id="linear-gradient-21" x1="165.8" y1="208.28" x2="166.76" y2="222.18" xlink:href="#linear-gradient"/><linearGradient id="linear-gradient-22" x1="146.89" y1="218.27" x2="147.84" y2="232.17" xlink:href="#linear-gradient"/><linearGradient id="linear-gradient-23" x1="156.34" y1="217.62" x2="157.3" y2="231.52" xlink:href="#linear-gradient"/><linearGradient id="linear-gradient-24" x1="165.8" y1="216.97" x2="166.76" y2="230.87" xlink:href="#linear-gradient"/><linearGradient id="linear-gradient-25" x1="184.35" y1="63.59" x2="162.47" y2="4.15" xlink:href="#linear-gradient-4"/><linearGradient id="linear-gradient-26" x1="142.53" y1="-6.3" x2="149.65" y2="56.69" xlink:href="#linear-gradient"/><linearGradient id="linear-gradient-27" x1="140.05" y1="-6.88" x2="147.24" y2="56.76" xlink:href="#linear-gradient"/><linearGradient id="linear-gradient-28" x1="138.2" y1="-6.55" x2="145.29" y2="56.17" xlink:href="#linear-gradient"/><linearGradient id="linear-gradient-29" x1="188.06" y1="-10.57" x2="195.06" y2="51.37" xlink:href="#linear-gradient"/><linearGradient id="linear-gradient-30" x1="42.91" y1="3.84" x2="146.81" y2="99.08" xlink:href="#linear-gradient-4"/><linearGradient id="linear-gradient-31" x1="33.01" y1="38.86" x2="168.06" y2="38.86" xlink:href="#linear-gradient"/><linearGradient id="linear-gradient-32" x1="34.01" y1="55.99" x2="94.68" y2="55.99" xlink:href="#linear-gradient"/><linearGradient id="linear-gradient-33" x1="40.66" y1="80.08" x2="95.67" y2="80.08" xlink:href="#linear-gradient"/></defs><title>computer</title><g class="cls-1"><g id="Layer_2" data-name="Layer 2"><g id="BACKGROUND_1" data-name="BACKGROUND 1"><rect class="cls-2" x="244.6" y="106.71" width="35.64" height="43.48"/><rect class="cls-3" x="246.7" y="109.24" width="20.43" height="0.75"/><rect class="cls-3" x="246.7" y="110.84" width="31.03" height="0.75"/><rect class="cls-3" x="246.7" y="120.4" width="31.03" height="0.75"/><rect class="cls-3" x="246.7" y="125.19" width="31.03" height="0.75"/><rect class="cls-3" x="246.7" y="128.38" width="31.03" height="0.75"/><rect class="cls-3" x="246.7" y="112.43" width="9.06" height="0.75"/><rect class="cls-3" x="256.45" y="112.43" width="15.17" height="0.75"/><rect class="cls-3" x="272.31" y="112.43" width="5.42" height="0.75"/><rect class="cls-3" x="246.7" y="126.78" width="15.87" height="0.75"/><rect class="cls-3" x="263.27" y="126.78" width="14.46" height="0.75"/><rect class="cls-3" x="246.7" y="118.81" width="7.01" height="0.75"/><rect class="cls-3" x="254.41" y="118.81" width="23.33" height="0.75"/><rect class="cls-3" x="246.7" y="122" width="12.11" height="0.75"/><rect class="cls-3" x="246.7" y="117.21" width="18.39" height="0.75"/><rect class="cls-3" x="265.78" y="117.21" width="11.95" height="0.75"/><rect class="cls-3" x="258.33" y="115.62" width="19.4" height="0.75"/><rect class="cls-3" x="246.7" y="115.62" width="10.93" height="0.75"/><rect class="cls-3" x="246.7" y="114.03" width="14.72" height="0.75"/><rect class="cls-3" x="262.11" y="114.03" width="11.98" height="0.75"/><rect class="cls-3" x="246.7" y="129.97" width="9.87" height="0.75"/><rect class="cls-3" x="257.26" y="129.97" width="11.32" height="0.75"/><rect class="cls-3" x="246.7" y="134.42" width="20.43" height="0.75"/><rect class="cls-3" x="246.7" y="136.02" width="31.03" height="0.75"/><rect class="cls-3" x="246.7" y="145.59" width="31.03" height="0.75"/><rect class="cls-3" x="246.7" y="137.61" width="9.06" height="0.75"/><rect class="cls-3" x="256.45" y="137.61" width="15.17" height="0.75"/><rect class="cls-3" x="272.31" y="137.61" width="5.42" height="0.75"/><rect class="cls-3" x="246.7" y="143.99" width="7.01" height="0.75"/><rect class="cls-3" x="254.41" y="143.99" width="23.33" height="0.75"/><rect class="cls-3" x="246.7" y="147.18" width="12.11" height="0.75"/><rect class="cls-3" x="246.7" y="142.4" width="18.39" height="0.75"/><rect class="cls-3" x="265.78" y="142.4" width="11.95" height="0.75"/><rect class="cls-3" x="258.33" y="140.8" width="19.4" height="0.75"/><rect class="cls-3" x="246.7" y="140.8" width="10.93" height="0.75"/><rect class="cls-3" x="246.7" y="139.21" width="14.72" height="0.75"/><rect class="cls-3" x="262.11" y="139.21" width="11.98" height="0.75"/><path class="cls-4" d="M182.81,101.11a26.67,26.67,0,1,1,18.88,32.46A26.7,26.7,0,0,1,182.81,101.11Z"/><path class="cls-5" d="M226,108a17.45,17.45,0,1,1-17.42-17.27A17.35,17.35,0,0,1,226,108Z"/><path class="cls-6" d="M182.81,243.55A26.67,26.67,0,1,1,201.69,276,26.7,26.7,0,0,1,182.81,243.55Z"/><path class="cls-7" d="M226,250.43a17.45,17.45,0,1,1-17.42-17.27A17.35,17.35,0,0,1,226,250.43Z"/><path class="cls-8" d="M94.94,209a17.45,17.45,0,1,1-17.41-17.28A17.33,17.33,0,0,1,94.94,209Z"/><path class="cls-9" d="M34.89,209a17.34,17.34,0,0,1-17.48,17.2,17.24,17.24,0,1,1,.06-34.48A17.36,17.36,0,0,1,34.89,209Z"/><path class="cls-10" d="M34.89,140.77A17.35,17.35,0,0,1,17.41,158a17.24,17.24,0,1,1,.06-34.48A17.35,17.35,0,0,1,34.89,140.77Z"/><polygon class="cls-2" points="167.04 107.33 167.04 108.59 207.96 108.59 207.96 249.77 78.13 249.77 78.13 175.9 76.87 175.9 76.87 208.36 18.07 208.36 18.07 141.37 42.51 141.37 42.51 140.11 16.82 140.11 16.82 209.61 76.87 209.61 76.87 251.03 209.21 251.03 209.21 107.33 167.04 107.33"/><polygon class="cls-2" points="167.04 107.33 167.04 108.59 207.96 108.59 207.96 249.77 78.13 249.77 78.13 175.9 76.87 175.9 76.87 208.36 18.07 208.36 18.07 141.37 42.51 141.37 42.51 140.11 16.82 140.11 16.82 209.61 76.87 209.61 76.87 251.03 209.21 251.03 209.21 107.33 167.04 107.33"/><rect class="cls-11" x="40.52" y="90.48" width="127.43" height="4.48"/><path class="cls-12" d="M40.63,93.63H167.95a4.55,4.55,0,0,1,4.55,4.55v78.88a4.56,4.56,0,0,1-4.56,4.56H40.63a4.55,4.55,0,0,1-4.55-4.55V98.18A4.55,4.55,0,0,1,40.63,93.63Z"/><rect class="cls-2" x="85.74" y="156.19" width="37.11" height="20.81" rx="1.13"/><rect class="cls-2" x="41.77" y="97.96" width="7.41" height="7.41" rx="0.74"/><rect class="cls-2" x="58.58" y="97.96" width="7.41" height="7.41" rx="0.74"/><rect class="cls-2" x="66.98" y="97.96" width="7.41" height="7.41" rx="0.74"/><rect class="cls-2" x="75.38" y="97.96" width="7.41" height="7.41" rx="0.74"/><rect class="cls-2" x="83.78" y="97.96" width="7.41" height="7.41" rx="0.74"/><rect class="cls-2" x="92.18" y="97.96" width="7.41" height="7.41" rx="0.74"/><rect class="cls-2" x="100.58" y="97.96" width="7.41" height="7.41" rx="0.74"/><rect class="cls-2" x="108.99" y="97.96" width="7.41" height="7.41" rx="0.74"/><rect class="cls-2" x="117.39" y="97.96" width="7.41" height="7.41" rx="0.74"/><rect class="cls-2" x="125.79" y="97.96" width="7.41" height="7.41" rx="0.74"/><rect class="cls-2" x="134.19" y="97.96" width="7.41" height="7.41" rx="0.74"/><rect class="cls-2" x="142.59" y="97.96" width="7.41" height="7.41" rx="0.74"/><rect class="cls-2" x="150.99" y="97.96" width="7.41" height="7.41" rx="0.74"/><rect class="cls-2" x="159.4" y="97.96" width="7.41" height="7.41" rx="0.74"/><rect class="cls-2" x="41.77" y="110.03" width="7.41" height="7.41" rx="0.74"/><rect class="cls-2" x="41.77" y="126.83" width="7.41" height="7.41" rx="0.74"/><rect class="cls-2" x="50.17" y="110.03" width="7.41" height="7.41" rx="0.74"/><rect class="cls-2" x="50.17" y="126.83" width="7.41" height="7.41" rx="0.74"/><rect class="cls-2" x="58.58" y="110.03" width="7.41" height="7.41" rx="0.74"/><rect class="cls-2" x="66.98" y="110.03" width="7.41" height="7.41" rx="0.74"/><rect class="cls-2" x="75.38" y="110.03" width="7.41" height="7.41" rx="0.74"/><rect class="cls-2" x="83.78" y="110.03" width="7.41" height="7.41" rx="0.74"/><rect class="cls-2" x="92.18" y="110.03" width="7.41" height="7.41" rx="0.74"/><rect class="cls-2" x="100.58" y="110.03" width="7.41" height="7.41" rx="0.74"/><rect class="cls-2" x="108.99" y="110.03" width="7.41" height="7.41" rx="0.74"/><rect class="cls-2" x="117.39" y="110.03" width="7.41" height="7.41" rx="0.74"/><rect class="cls-2" x="125.79" y="110.03" width="7.41" height="7.41" rx="0.74"/><rect class="cls-2" x="134.19" y="110.03" width="7.41" height="7.41" rx="0.74"/><rect class="cls-2" x="142.59" y="110.03" width="7.41" height="7.41" rx="0.74"/><rect class="cls-2" x="58.58" y="126.83" width="7.41" height="7.41" rx="0.74"/><rect class="cls-2" x="66.98" y="126.83" width="7.41" height="7.41" rx="0.74"/><rect class="cls-2" x="75.38" y="126.83" width="7.41" height="7.41" rx="0.74"/><rect class="cls-2" x="83.78" y="126.83" width="7.41" height="7.41" rx="0.74"/><rect class="cls-2" x="92.18" y="126.83" width="7.41" height="7.41" rx="0.74"/><rect class="cls-2" x="100.58" y="126.83" width="7.41" height="7.41" rx="0.74"/><rect class="cls-2" x="108.99" y="126.83" width="7.41" height="7.41" rx="0.74"/><rect class="cls-2" x="117.39" y="126.83" width="7.41" height="7.41" rx="0.74"/><rect class="cls-2" x="125.79" y="126.83" width="7.41" height="7.41" rx="0.74"/><rect class="cls-2" x="134.19" y="126.83" width="7.41" height="7.41" rx="0.74"/><rect class="cls-2" x="150.99" y="110.03" width="15.81" height="7.41" rx="0.74"/><rect class="cls-2" x="142.59" y="143.64" width="7.41" height="7.41" rx="0.74"/><rect class="cls-2" x="150.99" y="143.64" width="15.81" height="7.41" rx="0.74"/><rect class="cls-2" x="142.59" y="126.83" width="24.22" height="7.41" rx="0.74"/><rect class="cls-2" x="41.77" y="143.64" width="7.41" height="7.41" rx="0.74"/><rect class="cls-2" x="50.17" y="143.64" width="7.41" height="7.41" rx="0.74"/><rect class="cls-2" x="58.58" y="143.64" width="7.41" height="7.41" rx="0.74"/><rect class="cls-2" x="66.98" y="143.64" width="57.82" height="7.41" rx="0.74"/><rect class="cls-2" x="125.79" y="143.64" width="7.41" height="7.41" rx="0.74"/><rect class="cls-2" x="134.19" y="143.64" width="7.41" height="7.41" rx="0.74"/><rect class="cls-2" x="54.36" y="118.43" width="7.41" height="7.41" rx="0.74"/><rect class="cls-2" x="62.76" y="118.43" width="7.41" height="7.41" rx="0.74"/><rect class="cls-2" x="71.16" y="118.43" width="7.41" height="7.41" rx="0.74"/><rect class="cls-2" x="79.56" y="118.43" width="7.41" height="7.41" rx="0.74"/><rect class="cls-2" x="87.97" y="118.43" width="7.41" height="7.41" rx="0.74"/><rect class="cls-2" x="96.37" y="118.43" width="7.41" height="7.41" rx="0.74"/><rect class="cls-2" x="104.77" y="118.43" width="7.41" height="7.41" rx="0.74"/><rect class="cls-2" x="113.17" y="118.43" width="7.41" height="7.41" rx="0.74"/><rect class="cls-2" x="121.57" y="118.43" width="7.41" height="7.41" rx="0.74"/><rect class="cls-2" x="129.97" y="118.43" width="7.41" height="7.41" rx="0.74"/><rect class="cls-2" x="138.37" y="118.43" width="7.41" height="7.41" rx="0.74"/><rect class="cls-2" x="146.78" y="118.43" width="7.41" height="7.41" rx="0.74"/><rect class="cls-2" x="155.18" y="118.43" width="11.63" height="7.41" rx="0.74"/><rect class="cls-2" x="41.77" y="118.43" width="11.63" height="7.41" rx="0.74"/><rect class="cls-2" x="54.36" y="135.23" width="7.41" height="7.41" rx="0.74"/><rect class="cls-2" x="62.76" y="135.23" width="7.41" height="7.41" rx="0.74"/><rect class="cls-2" x="71.16" y="135.23" width="7.41" height="7.41" rx="0.74"/><rect class="cls-2" x="79.56" y="135.23" width="7.41" height="7.41" rx="0.74"/><rect class="cls-2" x="87.97" y="135.23" width="7.41" height="7.41" rx="0.74"/><rect class="cls-2" x="96.37" y="135.23" width="7.41" height="7.41" rx="0.74"/><rect class="cls-2" x="104.77" y="135.23" width="7.41" height="7.41" rx="0.74"/><rect class="cls-2" x="113.17" y="135.23" width="7.41" height="7.41" rx="0.74"/><rect class="cls-2" x="121.57" y="135.23" width="7.41" height="7.41" rx="0.74"/><rect class="cls-2" x="129.97" y="135.23" width="7.41" height="7.41" rx="0.74"/><rect class="cls-2" x="138.37" y="135.23" width="7.41" height="7.41" rx="0.74"/><rect class="cls-2" x="146.78" y="135.23" width="7.41" height="7.41" rx="0.74"/><rect class="cls-2" x="155.18" y="135.23" width="11.63" height="7.41" rx="0.74"/><rect class="cls-2" x="41.77" y="135.23" width="11.63" height="7.41" rx="0.74"/><g class="cls-13"><path class="cls-14" d="M42.51,105.37h5.94a.74.74,0,0,0,.74-.73V98.7a.74.74,0,0,0-.74-.74H42.51a.74.74,0,0,0-.74.74v5.94A.74.74,0,0,0,42.51,105.37Zm-.24-6.67a.24.24,0,0,1,.24-.24h5.94a.24.24,0,0,1,.24.24v5.94a.23.23,0,0,1-.24.23H42.51a.23.23,0,0,1-.24-.23Z"/><path class="cls-14" d="M59.31,105.37h5.94a.74.74,0,0,0,.74-.73V98.7a.74.74,0,0,0-.74-.74H59.31a.74.74,0,0,0-.73.74v5.94A.73.73,0,0,0,59.31,105.37Zm-.23-6.67a.23.23,0,0,1,.23-.24h5.94a.24.24,0,0,1,.24.24v5.94a.23.23,0,0,1-.24.23H59.31a.23.23,0,0,1-.23-.23Z"/><path class="cls-14" d="M67.72,105.37h5.93a.74.74,0,0,0,.74-.73V98.7a.74.74,0,0,0-.74-.74H67.72a.74.74,0,0,0-.74.74v5.94A.74.74,0,0,0,67.72,105.37Zm-.24-6.67a.24.24,0,0,1,.24-.24h5.93a.24.24,0,0,1,.24.24v5.94a.23.23,0,0,1-.24.23H67.72a.23.23,0,0,1-.24-.23Z"/><path class="cls-14" d="M76.12,105.37h5.93a.74.74,0,0,0,.74-.73V98.7a.74.74,0,0,0-.74-.74H76.12a.74.74,0,0,0-.74.74v5.94A.74.74,0,0,0,76.12,105.37Zm-.24-6.67a.24.24,0,0,1,.24-.24h5.93a.24.24,0,0,1,.24.24v5.94a.23.23,0,0,1-.24.23H76.12a.23.23,0,0,1-.24-.23Z"/><path class="cls-14" d="M84.52,105.37h5.94a.73.73,0,0,0,.73-.73V98.7a.74.74,0,0,0-.73-.74H84.52a.74.74,0,0,0-.74.74v5.94A.74.74,0,0,0,84.52,105.37Zm-.24-6.67a.24.24,0,0,1,.24-.24h5.94a.23.23,0,0,1,.23.24v5.94a.23.23,0,0,1-.23.23H84.52a.23.23,0,0,1-.24-.23Z"/><path class="cls-14" d="M92.92,105.37h5.94a.74.74,0,0,0,.74-.73V98.7a.74.74,0,0,0-.74-.74H92.92a.74.74,0,0,0-.74.74v5.94A.74.74,0,0,0,92.92,105.37Zm-.24-6.67a.24.24,0,0,1,.24-.24h5.94a.24.24,0,0,1,.24.24v5.94a.23.23,0,0,1-.24.23H92.92a.23.23,0,0,1-.24-.23Z"/><path class="cls-14" d="M101.32,105.37h5.94a.74.74,0,0,0,.74-.73V98.7a.74.74,0,0,0-.74-.74h-5.94a.74.74,0,0,0-.74.74v5.94A.74.74,0,0,0,101.32,105.37Zm-.24-6.67a.24.24,0,0,1,.24-.24h5.94a.24.24,0,0,1,.24.24v5.94a.23.23,0,0,1-.24.23h-5.94a.23.23,0,0,1-.24-.23Z"/><path class="cls-14" d="M109.72,105.37h5.94a.74.74,0,0,0,.74-.73V98.7a.74.74,0,0,0-.74-.74h-5.94a.74.74,0,0,0-.73.74v5.94A.73.73,0,0,0,109.72,105.37Zm-.23-6.67a.23.23,0,0,1,.23-.24h5.94a.24.24,0,0,1,.24.24v5.94a.23.23,0,0,1-.24.23h-5.94a.23.23,0,0,1-.23-.23Z"/><path class="cls-14" d="M118.13,105.37h5.93a.74.74,0,0,0,.74-.73V98.7a.74.74,0,0,0-.74-.74h-5.93a.74.74,0,0,0-.74.74v5.94A.74.74,0,0,0,118.13,105.37Zm-.24-6.67a.24.24,0,0,1,.24-.24h5.93a.24.24,0,0,1,.24.24v5.94a.23.23,0,0,1-.24.23h-5.93a.23.23,0,0,1-.24-.23Z"/><path class="cls-14" d="M126.53,105.37h5.93a.74.74,0,0,0,.74-.73V98.7a.74.74,0,0,0-.74-.74h-5.93a.74.74,0,0,0-.74.74v5.94A.74.74,0,0,0,126.53,105.37Zm-.24-6.67a.24.24,0,0,1,.24-.24h5.93a.24.24,0,0,1,.24.24v5.94a.23.23,0,0,1-.24.23h-5.93a.23.23,0,0,1-.24-.23Z"/><path class="cls-14" d="M134.93,105.37h5.94a.73.73,0,0,0,.73-.73V98.7a.74.74,0,0,0-.73-.74h-5.94a.74.74,0,0,0-.74.74v5.94A.74.74,0,0,0,134.93,105.37Zm-.24-6.67a.24.24,0,0,1,.24-.24h5.94a.23.23,0,0,1,.23.24v5.94a.23.23,0,0,1-.23.23h-5.94a.23.23,0,0,1-.24-.23Z"/><path class="cls-14" d="M143.33,105.37h5.94a.73.73,0,0,0,.73-.73V98.7a.74.74,0,0,0-.73-.74h-5.94a.74.74,0,0,0-.74.74v5.94A.74.74,0,0,0,143.33,105.37Zm-.24-6.67a.24.24,0,0,1,.24-.24h5.94a.23.23,0,0,1,.23.24v5.94a.23.23,0,0,1-.23.23h-5.94a.23.23,0,0,1-.24-.23Z"/><path class="cls-14" d="M151.73,105.37h5.94a.74.74,0,0,0,.74-.73V98.7a.74.74,0,0,0-.74-.74h-5.94a.74.74,0,0,0-.74.74v5.94A.74.74,0,0,0,151.73,105.37Zm-.24-6.67a.24.24,0,0,1,.24-.24h5.94a.24.24,0,0,1,.24.24v5.94a.23.23,0,0,1-.24.23h-5.94a.23.23,0,0,1-.24-.23Z"/><path class="cls-14" d="M166.07,98h-5.94a.74.74,0,0,0-.73.74v5.94a.73.73,0,0,0,.73.73h5.94a.74.74,0,0,0,.74-.73V98.7A.74.74,0,0,0,166.07,98Zm.24,6.68a.23.23,0,0,1-.24.23h-5.94a.23.23,0,0,1-.23-.23V98.7a.23.23,0,0,1,.23-.24h5.94a.24.24,0,0,1,.24.24Z"/><path class="cls-14" d="M42.51,117.44h5.94a.74.74,0,0,0,.74-.74v-5.93a.74.74,0,0,0-.74-.74H42.51a.74.74,0,0,0-.74.74v5.93A.74.74,0,0,0,42.51,117.44Zm-.24-6.67a.24.24,0,0,1,.24-.24h5.94a.24.24,0,0,1,.24.24v5.93a.24.24,0,0,1-.24.24H42.51a.24.24,0,0,1-.24-.24Z"/><path class="cls-14" d="M42.51,134.25h5.94a.74.74,0,0,0,.74-.74v-5.94a.74.74,0,0,0-.74-.74H42.51a.74.74,0,0,0-.74.74v5.94A.74.74,0,0,0,42.51,134.25Zm-.24-6.68a.24.24,0,0,1,.24-.24h5.94a.24.24,0,0,1,.24.24v5.94a.24.24,0,0,1-.24.24H42.51a.24.24,0,0,1-.24-.24Z"/><path class="cls-14" d="M50.91,117.44h5.94a.74.74,0,0,0,.74-.74v-5.93a.74.74,0,0,0-.74-.74H50.91a.74.74,0,0,0-.74.74v5.93A.74.74,0,0,0,50.91,117.44Zm-.24-6.67a.24.24,0,0,1,.24-.24h5.94a.24.24,0,0,1,.24.24v5.93a.24.24,0,0,1-.24.24H50.91a.24.24,0,0,1-.24-.24Z"/><path class="cls-14" d="M50.17,127.57v5.94a.75.75,0,0,0,.74.74h5.94a.74.74,0,0,0,.74-.74v-5.94a.74.74,0,0,0-.74-.74H50.91A.74.74,0,0,0,50.17,127.57Zm6.92,0v5.94a.24.24,0,0,1-.24.24H50.91a.24.24,0,0,1-.24-.24v-5.94a.24.24,0,0,1,.24-.24h5.94A.24.24,0,0,1,57.09,127.57Z"/><path class="cls-14" d="M59.31,117.44h5.94a.74.74,0,0,0,.74-.74v-5.93a.74.74,0,0,0-.74-.74H59.31a.74.74,0,0,0-.73.74v5.93A.74.74,0,0,0,59.31,117.44Zm-.23-6.67a.23.23,0,0,1,.23-.24h5.94a.24.24,0,0,1,.24.24v5.93a.24.24,0,0,1-.24.24H59.31a.23.23,0,0,1-.23-.24Z"/><path class="cls-14" d="M67.72,117.44h5.93a.74.74,0,0,0,.74-.74v-5.93a.74.74,0,0,0-.74-.74H67.72a.74.74,0,0,0-.74.74v5.93A.74.74,0,0,0,67.72,117.44Zm-.24-6.67a.24.24,0,0,1,.24-.24h5.93a.24.24,0,0,1,.24.24v5.93a.24.24,0,0,1-.24.24H67.72a.23.23,0,0,1-.24-.24Z"/><path class="cls-14" d="M76.12,117.44h5.93a.74.74,0,0,0,.74-.74v-5.93a.74.74,0,0,0-.74-.74H76.12a.74.74,0,0,0-.74.74v5.93A.74.74,0,0,0,76.12,117.44Zm-.24-6.67a.24.24,0,0,1,.24-.24h5.93a.24.24,0,0,1,.24.24v5.93a.23.23,0,0,1-.24.24H76.12a.24.24,0,0,1-.24-.24Z"/><path class="cls-14" d="M84.52,117.44h5.94a.74.74,0,0,0,.73-.74v-5.93a.74.74,0,0,0-.73-.74H84.52a.74.74,0,0,0-.74.74v5.93A.74.74,0,0,0,84.52,117.44Zm-.24-6.67a.24.24,0,0,1,.24-.24h5.94a.23.23,0,0,1,.23.24v5.93a.23.23,0,0,1-.23.24H84.52a.24.24,0,0,1-.24-.24Z"/><path class="cls-14" d="M92.92,117.44h5.94a.74.74,0,0,0,.74-.74v-5.93a.74.74,0,0,0-.74-.74H92.92a.74.74,0,0,0-.74.74v5.93A.74.74,0,0,0,92.92,117.44Zm-.24-6.67a.24.24,0,0,1,.24-.24h5.94a.24.24,0,0,1,.24.24v5.93a.24.24,0,0,1-.24.24H92.92a.24.24,0,0,1-.24-.24Z"/><path class="cls-14" d="M101.32,117.44h5.94a.74.74,0,0,0,.74-.74v-5.93a.74.74,0,0,0-.74-.74h-5.94a.74.74,0,0,0-.74.74v5.93A.74.74,0,0,0,101.32,117.44Zm-.24-6.67a.24.24,0,0,1,.24-.24h5.94a.24.24,0,0,1,.24.24v5.93a.24.24,0,0,1-.24.24h-5.94a.24.24,0,0,1-.24-.24Z"/><path class="cls-14" d="M109.72,117.44h5.94a.74.74,0,0,0,.74-.74v-5.93a.74.74,0,0,0-.74-.74h-5.94a.74.74,0,0,0-.73.74v5.93A.74.74,0,0,0,109.72,117.44Zm-.23-6.67a.23.23,0,0,1,.23-.24h5.94a.24.24,0,0,1,.24.24v5.93a.24.24,0,0,1-.24.24h-5.94a.23.23,0,0,1-.23-.24Z"/><path class="cls-14" d="M118.13,117.44h5.93a.74.74,0,0,0,.74-.74v-5.93a.74.74,0,0,0-.74-.74h-5.93a.74.74,0,0,0-.74.74v5.93A.74.74,0,0,0,118.13,117.44Zm-.24-6.67a.24.24,0,0,1,.24-.24h5.93a.24.24,0,0,1,.24.24v5.93a.24.24,0,0,1-.24.24h-5.93a.23.23,0,0,1-.24-.24Z"/><path class="cls-14" d="M126.53,117.44h5.93a.74.74,0,0,0,.74-.74v-5.93a.74.74,0,0,0-.74-.74h-5.93a.74.74,0,0,0-.74.74v5.93A.74.74,0,0,0,126.53,117.44Zm-.24-6.67a.24.24,0,0,1,.24-.24h5.93a.24.24,0,0,1,.24.24v5.93a.24.24,0,0,1-.24.24h-5.93a.24.24,0,0,1-.24-.24Z"/><path class="cls-14" d="M134.93,117.44h5.94a.74.74,0,0,0,.73-.74v-5.93a.74.74,0,0,0-.73-.74h-5.94a.74.74,0,0,0-.74.74v5.93A.74.74,0,0,0,134.93,117.44Zm-.24-6.67a.24.24,0,0,1,.24-.24h5.94a.23.23,0,0,1,.23.24v5.93a.23.23,0,0,1-.23.24h-5.94a.24.24,0,0,1-.24-.24Z"/><path class="cls-14" d="M143.33,117.44h5.94a.74.74,0,0,0,.73-.74v-5.93a.74.74,0,0,0-.73-.74h-5.94a.74.74,0,0,0-.74.74v5.93A.74.74,0,0,0,143.33,117.44Zm-.24-6.67a.24.24,0,0,1,.24-.24h5.94a.23.23,0,0,1,.23.24v5.93a.23.23,0,0,1-.23.24h-5.94a.24.24,0,0,1-.24-.24Z"/><path class="cls-14" d="M66,133.51v-5.94a.74.74,0,0,0-.74-.74H59.31a.74.74,0,0,0-.73.74v5.94a.74.74,0,0,0,.73.74h5.94A.74.74,0,0,0,66,133.51Zm-6.91,0v-5.94a.23.23,0,0,1,.23-.24h5.94a.24.24,0,0,1,.24.24v5.94a.24.24,0,0,1-.24.24H59.31A.23.23,0,0,1,59.08,133.51Z"/><path class="cls-14" d="M74.39,133.51v-5.94a.74.74,0,0,0-.74-.74H67.72a.74.74,0,0,0-.74.74v5.94a.74.74,0,0,0,.74.74h5.93A.74.74,0,0,0,74.39,133.51Zm-6.91,0v-5.94a.24.24,0,0,1,.24-.24h5.93a.24.24,0,0,1,.24.24v5.94a.24.24,0,0,1-.24.24H67.72A.24.24,0,0,1,67.48,133.51Z"/><path class="cls-14" d="M82.79,133.51v-5.94a.74.74,0,0,0-.74-.74H76.12a.74.74,0,0,0-.74.74v5.94a.74.74,0,0,0,.74.74h5.93A.74.74,0,0,0,82.79,133.51Zm-6.91,0v-5.94a.24.24,0,0,1,.24-.24h5.93a.24.24,0,0,1,.24.24v5.94a.24.24,0,0,1-.24.24H76.12A.24.24,0,0,1,75.88,133.51Z"/><path class="cls-14" d="M91.19,133.51v-5.94a.74.74,0,0,0-.73-.74H84.52a.74.74,0,0,0-.74.74v5.94a.74.74,0,0,0,.74.74h5.94A.74.74,0,0,0,91.19,133.51Zm-6.91,0v-5.94a.24.24,0,0,1,.24-.24h5.94a.23.23,0,0,1,.23.24v5.94a.23.23,0,0,1-.23.24H84.52A.24.24,0,0,1,84.28,133.51Z"/><path class="cls-14" d="M99.6,133.51v-5.94a.74.74,0,0,0-.74-.74H92.92a.74.74,0,0,0-.74.74v5.94a.74.74,0,0,0,.74.74h5.94A.75.75,0,0,0,99.6,133.51Zm-6.92,0v-5.94a.24.24,0,0,1,.24-.24h5.94a.24.24,0,0,1,.24.24v5.94a.24.24,0,0,1-.24.24H92.92A.24.24,0,0,1,92.68,133.51Z"/><path class="cls-14" d="M108,133.51v-5.94a.74.74,0,0,0-.74-.74h-5.94a.74.74,0,0,0-.74.74v5.94a.74.74,0,0,0,.74.74h5.94A.74.74,0,0,0,108,133.51Zm-6.92,0v-5.94a.24.24,0,0,1,.24-.24h5.94a.24.24,0,0,1,.24.24v5.94a.24.24,0,0,1-.24.24h-5.94A.24.24,0,0,1,101.08,133.51Z"/><path class="cls-14" d="M116.4,133.51v-5.94a.74.74,0,0,0-.74-.74h-5.94a.74.74,0,0,0-.73.74v5.94a.74.74,0,0,0,.73.74h5.94A.74.74,0,0,0,116.4,133.51Zm-6.91,0v-5.94a.23.23,0,0,1,.23-.24h5.94a.24.24,0,0,1,.24.24v5.94a.24.24,0,0,1-.24.24h-5.94A.23.23,0,0,1,109.49,133.51Z"/><path class="cls-14" d="M124.8,133.51v-5.94a.74.74,0,0,0-.74-.74h-5.93a.74.74,0,0,0-.74.74v5.94a.74.74,0,0,0,.74.74h5.93A.74.74,0,0,0,124.8,133.51Zm-6.91,0v-5.94a.24.24,0,0,1,.24-.24h5.93a.24.24,0,0,1,.24.24v5.94a.24.24,0,0,1-.24.24h-5.93A.24.24,0,0,1,117.89,133.51Z"/><path class="cls-14" d="M133.2,133.51v-5.94a.74.74,0,0,0-.74-.74h-5.93a.74.74,0,0,0-.74.74v5.94a.74.74,0,0,0,.74.74h5.93A.74.74,0,0,0,133.2,133.51Zm-6.91,0v-5.94a.24.24,0,0,1,.24-.24h5.93a.24.24,0,0,1,.24.24v5.94a.24.24,0,0,1-.24.24h-5.93A.24.24,0,0,1,126.29,133.51Z"/><path class="cls-14" d="M140.87,126.83h-5.94a.74.74,0,0,0-.74.74v5.94a.74.74,0,0,0,.74.74h5.94a.74.74,0,0,0,.73-.74v-5.94A.74.74,0,0,0,140.87,126.83Zm.23,6.68a.23.23,0,0,1-.23.24h-5.94a.24.24,0,0,1-.24-.24v-5.94a.24.24,0,0,1,.24-.24h5.94a.23.23,0,0,1,.23.24Z"/><path class="cls-14" d="M166.07,110H151.73a.74.74,0,0,0-.74.74v5.93a.74.74,0,0,0,.74.74h14.34a.74.74,0,0,0,.74-.74v-5.93A.74.74,0,0,0,166.07,110Zm.24,6.67a.24.24,0,0,1-.24.24H151.73a.24.24,0,0,1-.24-.24v-5.93a.24.24,0,0,1,.24-.24h14.34a.24.24,0,0,1,.24.24Z"/><path class="cls-14" d="M149.27,143.64h-5.94a.74.74,0,0,0-.74.73v5.94a.74.74,0,0,0,.74.74h5.94a.74.74,0,0,0,.73-.74v-5.94A.73.73,0,0,0,149.27,143.64Zm.23,6.67a.23.23,0,0,1-.23.24h-5.94a.24.24,0,0,1-.24-.24v-5.94a.23.23,0,0,1,.24-.23h5.94a.23.23,0,0,1,.23.23Z"/><path class="cls-14" d="M166.07,143.64H151.73a.74.74,0,0,0-.74.73v5.94a.74.74,0,0,0,.74.74h14.34a.74.74,0,0,0,.74-.74v-5.94A.74.74,0,0,0,166.07,143.64Zm.24,6.67a.24.24,0,0,1-.24.24H151.73a.24.24,0,0,1-.24-.24v-5.94a.23.23,0,0,1,.24-.23h14.34a.23.23,0,0,1,.24.23Z"/><path class="cls-14" d="M166.07,126.83H143.33a.74.74,0,0,0-.74.74v5.94a.74.74,0,0,0,.74.74h22.74a.74.74,0,0,0,.74-.74v-5.94A.74.74,0,0,0,166.07,126.83Zm.24,6.68a.24.24,0,0,1-.24.24H143.33a.24.24,0,0,1-.24-.24v-5.94a.24.24,0,0,1,.24-.24h22.74a.24.24,0,0,1,.24.24Z"/><path class="cls-14" d="M48.45,143.64H42.51a.74.74,0,0,0-.74.73v5.94a.74.74,0,0,0,.74.74h5.94a.74.74,0,0,0,.74-.74v-5.94A.74.74,0,0,0,48.45,143.64Zm.24,6.67a.24.24,0,0,1-.24.24H42.51a.24.24,0,0,1-.24-.24v-5.94a.23.23,0,0,1,.24-.23h5.94a.23.23,0,0,1,.24.23Z"/><path class="cls-14" d="M56.85,143.64H50.91a.74.74,0,0,0-.74.73v5.94a.74.74,0,0,0,.74.74h5.94a.74.74,0,0,0,.74-.74v-5.94A.74.74,0,0,0,56.85,143.64Zm.24,6.67a.24.24,0,0,1-.24.24H50.91a.24.24,0,0,1-.24-.24v-5.94a.23.23,0,0,1,.24-.23h5.94a.23.23,0,0,1,.24.23Z"/><path class="cls-14" d="M65.25,143.64H59.31a.73.73,0,0,0-.73.73v5.94a.74.74,0,0,0,.73.74h5.94a.74.74,0,0,0,.74-.74v-5.94A.74.74,0,0,0,65.25,143.64Zm.24,6.67a.24.24,0,0,1-.24.24H59.31a.23.23,0,0,1-.23-.24v-5.94a.23.23,0,0,1,.23-.23h5.94a.23.23,0,0,1,.24.23Z"/><path class="cls-14" d="M124.06,143.64H67.72a.74.74,0,0,0-.74.73v5.94a.74.74,0,0,0,.74.74h56.34a.74.74,0,0,0,.74-.74v-5.94A.74.74,0,0,0,124.06,143.64Zm.24,6.67a.24.24,0,0,1-.24.24H67.72a.24.24,0,0,1-.24-.24v-5.94a.23.23,0,0,1,.24-.23h56.34a.23.23,0,0,1,.24.23Z"/><path class="cls-14" d="M132.46,143.64h-5.93a.74.74,0,0,0-.74.73v5.94a.74.74,0,0,0,.74.74h5.93a.74.74,0,0,0,.74-.74v-5.94A.74.74,0,0,0,132.46,143.64Zm.24,6.67a.24.24,0,0,1-.24.24h-5.93a.24.24,0,0,1-.24-.24v-5.94a.23.23,0,0,1,.24-.23h5.93a.23.23,0,0,1,.24.23Z"/><path class="cls-14" d="M140.87,143.64h-5.94a.74.74,0,0,0-.74.73v5.94a.74.74,0,0,0,.74.74h5.94a.74.74,0,0,0,.73-.74v-5.94A.73.73,0,0,0,140.87,143.64Zm.23,6.67a.23.23,0,0,1-.23.24h-5.94a.24.24,0,0,1-.24-.24v-5.94a.23.23,0,0,1,.24-.23h5.94a.23.23,0,0,1,.23.23Z"/><path class="cls-14" d="M61,125.84a.74.74,0,0,0,.74-.73v-5.94a.74.74,0,0,0-.74-.74H55.1a.74.74,0,0,0-.74.74v5.94a.74.74,0,0,0,.74.73Zm-6.17-.73v-5.94a.24.24,0,0,1,.24-.24H61a.24.24,0,0,1,.24.24v5.94a.23.23,0,0,1-.24.23H55.1A.23.23,0,0,1,54.86,125.11Z"/><path class="cls-14" d="M69.43,125.84a.74.74,0,0,0,.74-.73v-5.94a.74.74,0,0,0-.74-.74H63.5a.74.74,0,0,0-.74.74v5.94a.74.74,0,0,0,.74.73Zm-6.17-.73v-5.94a.24.24,0,0,1,.24-.24h5.93a.24.24,0,0,1,.24.24v5.94a.23.23,0,0,1-.24.23H63.5A.23.23,0,0,1,63.26,125.11Z"/><path class="cls-14" d="M77.84,125.84a.73.73,0,0,0,.73-.73v-5.94a.74.74,0,0,0-.73-.74H71.9a.74.74,0,0,0-.74.74v5.94a.74.74,0,0,0,.74.73Zm-6.18-.73v-5.94a.24.24,0,0,1,.24-.24h5.94a.23.23,0,0,1,.23.24v5.94a.23.23,0,0,1-.23.23H71.9A.23.23,0,0,1,71.66,125.11Z"/><path class="cls-14" d="M86.24,125.84a.74.74,0,0,0,.74-.73v-5.94a.74.74,0,0,0-.74-.74H80.3a.74.74,0,0,0-.74.74v5.94a.74.74,0,0,0,.74.73Zm-6.18-.73v-5.94a.24.24,0,0,1,.24-.24h5.94a.24.24,0,0,1,.24.24v5.94a.23.23,0,0,1-.24.23H80.3A.23.23,0,0,1,80.06,125.11Z"/><path class="cls-14" d="M94.64,125.84a.74.74,0,0,0,.74-.73v-5.94a.74.74,0,0,0-.74-.74H88.7a.74.74,0,0,0-.73.74v5.94a.73.73,0,0,0,.73.73Zm-6.17-.73v-5.94a.23.23,0,0,1,.23-.24h5.94a.24.24,0,0,1,.24.24v5.94a.23.23,0,0,1-.24.23H88.7A.23.23,0,0,1,88.47,125.11Z"/><path class="cls-14" d="M103,125.84a.74.74,0,0,0,.74-.73v-5.94a.74.74,0,0,0-.74-.74H97.1a.74.74,0,0,0-.73.74v5.94a.73.73,0,0,0,.73.73Zm-6.17-.73v-5.94a.23.23,0,0,1,.23-.24H103a.24.24,0,0,1,.24.24v5.94a.23.23,0,0,1-.24.23H97.1A.23.23,0,0,1,96.87,125.11Z"/><path class="cls-14" d="M111.44,125.84a.74.74,0,0,0,.74-.73v-5.94a.74.74,0,0,0-.74-.74h-5.93a.74.74,0,0,0-.74.74v5.94a.74.74,0,0,0,.74.73Zm-6.17-.73v-5.94a.24.24,0,0,1,.24-.24h5.93a.24.24,0,0,1,.24.24v5.94a.23.23,0,0,1-.24.23h-5.93A.23.23,0,0,1,105.27,125.11Z"/><path class="cls-14" d="M119.84,125.84a.74.74,0,0,0,.74-.73v-5.94a.74.74,0,0,0-.74-.74h-5.93a.74.74,0,0,0-.74.74v5.94a.74.74,0,0,0,.74.73Zm-6.17-.73v-5.94a.24.24,0,0,1,.24-.24h5.93a.24.24,0,0,1,.24.24v5.94a.23.23,0,0,1-.24.23h-5.93A.23.23,0,0,1,113.67,125.11Z"/><path class="cls-14" d="M128.25,125.84a.73.73,0,0,0,.73-.73v-5.94a.74.74,0,0,0-.73-.74h-5.94a.74.74,0,0,0-.74.74v5.94a.74.74,0,0,0,.74.73Zm-6.18-.73v-5.94a.24.24,0,0,1,.24-.24h5.94a.23.23,0,0,1,.23.24v5.94a.23.23,0,0,1-.23.23h-5.94A.23.23,0,0,1,122.07,125.11Z"/><path class="cls-14" d="M136.65,125.84a.74.74,0,0,0,.74-.73v-5.94a.74.74,0,0,0-.74-.74h-5.94a.74.74,0,0,0-.74.74v5.94a.74.74,0,0,0,.74.73Zm-6.18-.73v-5.94a.24.24,0,0,1,.24-.24h5.94a.24.24,0,0,1,.24.24v5.94a.23.23,0,0,1-.24.23h-5.94A.23.23,0,0,1,130.47,125.11Z"/><path class="cls-14" d="M145.79,125.11v-5.94a.74.74,0,0,0-.74-.74h-5.94a.74.74,0,0,0-.74.74v5.94a.74.74,0,0,0,.74.73h5.94A.74.74,0,0,0,145.79,125.11Zm-6.92,0v-5.94a.24.24,0,0,1,.24-.24h5.94a.24.24,0,0,1,.24.24v5.94a.23.23,0,0,1-.24.23h-5.94A.23.23,0,0,1,138.87,125.11Z"/><path class="cls-14" d="M146.78,119.17v5.94a.73.73,0,0,0,.73.73h5.94a.74.74,0,0,0,.74-.73v-5.94a.74.74,0,0,0-.74-.74h-5.94A.74.74,0,0,0,146.78,119.17Zm6.91,0v5.94a.23.23,0,0,1-.24.23h-5.94a.23.23,0,0,1-.23-.23v-5.94a.23.23,0,0,1,.23-.24h5.94A.24.24,0,0,1,153.69,119.17Z"/><path class="cls-14" d="M166.07,118.43H155.92a.74.74,0,0,0-.74.74v5.94a.74.74,0,0,0,.74.73h10.15a.74.74,0,0,0,.74-.73v-5.94A.74.74,0,0,0,166.07,118.43Zm.24,6.68a.23.23,0,0,1-.24.23H155.92a.23.23,0,0,1-.24-.23v-5.94a.24.24,0,0,1,.24-.24h10.15a.24.24,0,0,1,.24.24Z"/><path class="cls-14" d="M42.51,125.84H52.67a.73.73,0,0,0,.73-.73v-5.94a.74.74,0,0,0-.73-.74H42.51a.74.74,0,0,0-.74.74v5.94A.74.74,0,0,0,42.51,125.84Zm-.24-6.67a.24.24,0,0,1,.24-.24H52.67a.23.23,0,0,1,.23.24v5.94a.23.23,0,0,1-.23.23H42.51a.23.23,0,0,1-.24-.23Z"/><path class="cls-14" d="M55.1,142.65H61a.74.74,0,0,0,.74-.74V136a.74.74,0,0,0-.74-.74H55.1a.74.74,0,0,0-.74.74v5.94A.74.74,0,0,0,55.1,142.65ZM54.86,136a.24.24,0,0,1,.24-.24H61a.24.24,0,0,1,.24.24v5.94a.24.24,0,0,1-.24.24H55.1a.24.24,0,0,1-.24-.24Z"/><path class="cls-14" d="M63.5,142.65h5.93a.74.74,0,0,0,.74-.74V136a.74.74,0,0,0-.74-.74H63.5a.74.74,0,0,0-.74.74v5.94A.74.74,0,0,0,63.5,142.65ZM63.26,136a.24.24,0,0,1,.24-.24h5.93a.24.24,0,0,1,.24.24v5.94a.24.24,0,0,1-.24.24H63.5a.24.24,0,0,1-.24-.24Z"/><path class="cls-14" d="M71.9,142.65h5.94a.74.74,0,0,0,.73-.74V136a.74.74,0,0,0-.73-.74H71.9a.74.74,0,0,0-.74.74v5.94A.74.74,0,0,0,71.9,142.65ZM71.66,136a.24.24,0,0,1,.24-.24h5.94a.23.23,0,0,1,.23.24v5.94a.23.23,0,0,1-.23.24H71.9a.24.24,0,0,1-.24-.24Z"/><path class="cls-14" d="M80.3,142.65h5.94a.74.74,0,0,0,.74-.74V136a.74.74,0,0,0-.74-.74H80.3a.74.74,0,0,0-.74.74v5.94A.74.74,0,0,0,80.3,142.65ZM80.06,136a.24.24,0,0,1,.24-.24h5.94a.24.24,0,0,1,.24.24v5.94a.24.24,0,0,1-.24.24H80.3a.24.24,0,0,1-.24-.24Z"/><path class="cls-14" d="M88.7,142.65h5.94a.74.74,0,0,0,.74-.74V136a.74.74,0,0,0-.74-.74H88.7A.74.74,0,0,0,88,136v5.94A.74.74,0,0,0,88.7,142.65ZM88.47,136a.23.23,0,0,1,.23-.24h5.94a.24.24,0,0,1,.24.24v5.94a.24.24,0,0,1-.24.24H88.7a.23.23,0,0,1-.23-.24Z"/><path class="cls-14" d="M97.1,142.65H103a.74.74,0,0,0,.74-.74V136a.74.74,0,0,0-.74-.74H97.1a.74.74,0,0,0-.73.74v5.94A.74.74,0,0,0,97.1,142.65ZM96.87,136a.23.23,0,0,1,.23-.24H103a.24.24,0,0,1,.24.24v5.94a.24.24,0,0,1-.24.24H97.1a.23.23,0,0,1-.23-.24Z"/><path class="cls-14" d="M105.51,142.65h5.93a.74.74,0,0,0,.74-.74V136a.74.74,0,0,0-.74-.74h-5.93a.74.74,0,0,0-.74.74v5.94A.74.74,0,0,0,105.51,142.65Zm-.24-6.68a.24.24,0,0,1,.24-.24h5.93a.24.24,0,0,1,.24.24v5.94a.24.24,0,0,1-.24.24h-5.93a.24.24,0,0,1-.24-.24Z"/><path class="cls-14" d="M113.91,142.65h5.93a.74.74,0,0,0,.74-.74V136a.74.74,0,0,0-.74-.74h-5.93a.74.74,0,0,0-.74.74v5.94A.74.74,0,0,0,113.91,142.65Zm-.24-6.68a.24.24,0,0,1,.24-.24h5.93a.24.24,0,0,1,.24.24v5.94a.24.24,0,0,1-.24.24h-5.93a.24.24,0,0,1-.24-.24Z"/><path class="cls-14" d="M122.31,142.65h5.94a.74.74,0,0,0,.73-.74V136a.74.74,0,0,0-.73-.74h-5.94a.74.74,0,0,0-.74.74v5.94A.74.74,0,0,0,122.31,142.65Zm-.24-6.68a.24.24,0,0,1,.24-.24h5.94a.23.23,0,0,1,.23.24v5.94a.23.23,0,0,1-.23.24h-5.94a.24.24,0,0,1-.24-.24Z"/><path class="cls-14" d="M130.71,142.65h5.94a.74.74,0,0,0,.74-.74V136a.74.74,0,0,0-.74-.74h-5.94a.74.74,0,0,0-.74.74v5.94A.74.74,0,0,0,130.71,142.65Zm-.24-6.68a.24.24,0,0,1,.24-.24h5.94a.24.24,0,0,1,.24.24v5.94a.24.24,0,0,1-.24.24h-5.94a.24.24,0,0,1-.24-.24Z"/><path class="cls-14" d="M138.37,136v5.94a.74.74,0,0,0,.74.74h5.94a.74.74,0,0,0,.74-.74V136a.74.74,0,0,0-.74-.74h-5.94A.74.74,0,0,0,138.37,136Zm6.92,0v5.94a.24.24,0,0,1-.24.24h-5.94a.24.24,0,0,1-.24-.24V136a.24.24,0,0,1,.24-.24h5.94A.24.24,0,0,1,145.29,136Z"/><path class="cls-14" d="M153.45,142.65a.74.74,0,0,0,.74-.74V136a.74.74,0,0,0-.74-.74h-5.94a.74.74,0,0,0-.73.74v5.94a.74.74,0,0,0,.73.74Zm-6.17-.74V136a.23.23,0,0,1,.23-.24h5.94a.24.24,0,0,1,.24.24v5.94a.24.24,0,0,1-.24.24h-5.94A.23.23,0,0,1,147.28,141.91Z"/><path class="cls-14" d="M166.07,135.23H155.92a.74.74,0,0,0-.74.74v5.94a.74.74,0,0,0,.74.74h10.15a.74.74,0,0,0,.74-.74V136A.74.74,0,0,0,166.07,135.23Zm.24,6.68a.24.24,0,0,1-.24.24H155.92a.24.24,0,0,1-.24-.24V136a.24.24,0,0,1,.24-.24h10.15a.24.24,0,0,1,.24.24Z"/><path class="cls-14" d="M42.51,142.65H52.67a.74.74,0,0,0,.73-.74V136a.74.74,0,0,0-.73-.74H42.51a.74.74,0,0,0-.74.74v5.94A.74.74,0,0,0,42.51,142.65ZM42.27,136a.24.24,0,0,1,.24-.24H52.67a.23.23,0,0,1,.23.24v5.94a.23.23,0,0,1-.23.24H42.51a.24.24,0,0,1-.24-.24Z"/></g><path class="cls-15" d="M121.71,156.19H86.87a1.13,1.13,0,0,0-1.13,1.13v18.55A1.13,1.13,0,0,0,86.87,177h34.84a1.13,1.13,0,0,0,1.13-1.13V157.32A1.13,1.13,0,0,0,121.71,156.19Zm.47,19.68a.47.47,0,0,1-.47.46H86.87a.47.47,0,0,1-.47-.46V157.32a.46.46,0,0,1,.47-.46h34.84a.46.46,0,0,1,.47.46Z"/><path class="cls-16" d="M168,93.63H40.63a4.55,4.55,0,0,0-4.55,4.55v78.88a4.56,4.56,0,0,0,4.55,4.56H168a4.56,4.56,0,0,0,4.55-4.56V98.18A4.55,4.55,0,0,0,168,93.63Zm3.22,83.43a3.22,3.22,0,0,1-3.22,3.22H40.63a3.22,3.22,0,0,1-3.22-3.22V98.18A3.23,3.23,0,0,1,40.63,95H168a3.22,3.22,0,0,1,3.22,3.22Z"/><rect class="cls-17" x="156.74" y="139.01" width="106.21" height="71.17" rx="3.49"/><path class="cls-18" d="M259.46,139H160.23a3.49,3.49,0,0,0-3.49,3.49v1.63H263V142.5A3.49,3.49,0,0,0,259.46,139Z"/><path class="cls-19" d="M259.46,139H160.23a3.49,3.49,0,0,0-3.49,3.49v64.19a3.49,3.49,0,0,0,3.49,3.49h99.23a3.49,3.49,0,0,0,3.49-3.49V142.5A3.49,3.49,0,0,0,259.46,139Zm1.76,67.68a1.76,1.76,0,0,1-1.76,1.76H160.23a1.76,1.76,0,0,1-1.76-1.76V142.5a1.76,1.76,0,0,1,1.76-1.76h99.23a1.76,1.76,0,0,1,1.76,1.76Z"/><rect class="cls-20" x="160.29" y="145.54" width="99.12" height="6.36"/><rect class="cls-21" x="160.29" y="153.2" width="43.33" height="22.7"/><rect class="cls-22" x="160.29" y="186.2" width="20.92" height="20.15"/><rect class="cls-23" x="205" y="153.2" width="54.4" height="22.7"/><rect class="cls-3" x="161.8" y="146.53" width="8.13" height="4.37"/><rect class="cls-3" x="170.77" y="146.53" width="12.41" height="0.8"/><rect class="cls-3" x="170.77" y="147.92" width="8.84" height="0.8"/><rect class="cls-3" x="256.39" y="146.53" width="1.49" height="1.49"/><rect class="cls-3" x="254.48" y="146.53" width="1.49" height="1.49"/><rect class="cls-3" x="252.57" y="146.53" width="1.49" height="1.49"/><rect class="cls-3" x="250.66" y="146.53" width="1.49" height="1.49"/><rect class="cls-3" x="161.8" y="154.36" width="18.24" height="11.23"/><rect class="cls-3" x="180.75" y="154.36" width="21.17" height="0.8"/><rect class="cls-3" x="180.75" y="155.85" width="21.17" height="0.8"/><rect class="cls-3" x="180.75" y="157.34" width="21.17" height="0.8"/><rect class="cls-3" x="180.75" y="160.32" width="21.17" height="0.8"/><rect class="cls-3" x="180.75" y="163.3" width="21.17" height="0.8"/><rect class="cls-3" x="161.8" y="166.28" width="40.12" height="0.8"/><rect class="cls-3" x="161.8" y="172.24" width="40.12" height="0.8"/><rect class="cls-3" x="161.8" y="173.73" width="25.21" height="0.8"/><rect class="cls-3" x="196.29" y="158.83" width="5.63" height="0.8"/><rect class="cls-3" x="180.75" y="161.81" width="8.49" height="0.8"/><rect class="cls-3" x="189.95" y="161.81" width="11.97" height="0.8"/><rect class="cls-3" x="180.75" y="164.79" width="13.28" height="0.8"/><rect class="cls-3" x="194.74" y="164.79" width="7.18" height="0.8"/><rect class="cls-3" x="183.54" y="167.77" width="18.38" height="0.8"/><rect class="cls-3" x="161.8" y="167.77" width="21.02" height="0.8"/><rect class="cls-3" x="161.8" y="170.75" width="28.15" height="0.8"/><rect class="cls-3" x="190.66" y="170.75" width="11.26" height="0.8"/><rect class="cls-3" x="161.8" y="169.26" width="10.07" height="0.8"/><rect class="cls-3" x="172.59" y="169.26" width="29.33" height="0.8"/><rect class="cls-3" x="180.75" y="158.83" width="5.9" height="0.8"/><rect class="cls-3" x="187.36" y="158.83" width="8.22" height="0.8"/><path class="cls-3" d="M205.87,154.06v21h52.67v-21Zm52.23,20.53h-4v-.81h-.33v.81h-4.13v-.81h-.32v.81h-4.13v-.81h-.32v.81h-4.13v-.81h-.33v.81h-4.12v-.81h-.33v.81h-4.13v-.81h-.32v.81h-4.13v-.81H227v.81h-4.13v-.81h-.33v.81h-4.13v-.81h-.32v.81H214v-.81h-.32v.81h-4.13v-.81h-.33v.81H206.3V154.5h51.8Z"/><g class="cls-24"><rect class="cls-14" x="206.3" y="171.8" width="51.8" height="0.13"/><rect class="cls-14" x="206.3" y="169.08" width="51.8" height="0.13"/><rect class="cls-14" x="206.3" y="166.35" width="51.8" height="0.13"/><rect class="cls-14" x="206.3" y="163.63" width="51.8" height="0.13"/><rect class="cls-14" x="206.3" y="160.91" width="51.8" height="0.13"/></g><polygon class="cls-3" points="256.14 156.3 248.19 161.83 240.74 164.67 239.19 162.75 226.35 169.54 222.25 166.18 218.01 168.07 216 166.54 206.04 174.25 206.57 174.94 216.01 167.63 217.9 169.07 222.11 167.19 226.25 170.58 238.97 163.85 240.46 165.71 248.55 162.62 256.63 157.01 256.14 156.3"/><rect class="cls-25" x="160.29" y="177.28" width="20.92" height="2.35"/><rect class="cls-25" x="160.29" y="180.42" width="20.92" height="0.8"/><rect class="cls-25" x="160.29" y="182" width="20.92" height="0.8"/><rect class="cls-25" x="160.29" y="183.59" width="12.49" height="0.8"/><rect class="cls-25" x="182.7" y="177.28" width="20.92" height="2.35"/><rect class="cls-25" x="182.7" y="180.42" width="20.92" height="0.8"/><rect class="cls-25" x="182.7" y="182" width="20.92" height="0.8"/><rect class="cls-25" x="182.7" y="183.59" width="12.49" height="0.8"/><rect class="cls-26" x="205" y="177.28" width="54.4" height="7.12"/><rect class="cls-3" x="205.87" y="178.14" width="5.42" height="5.39"/><rect class="cls-25" x="161.8" y="202.19" width="17.95" height="2.97"/><rect class="cls-3" x="212.35" y="178.14" width="43.5" height="0.73"/><rect class="cls-3" x="212.35" y="181.25" width="43.5" height="0.73"/><rect class="cls-3" x="212.35" y="179.7" width="22.25" height="0.73"/><rect class="cls-3" x="235.58" y="179.7" width="20.28" height="0.73"/><rect class="cls-3" x="212.35" y="182.81" width="13.83" height="0.73"/><rect class="cls-3" x="227.16" y="182.81" width="15.87" height="0.73"/><rect class="cls-3" x="161.8" y="187.47" width="11.81" height="0.76"/><rect class="cls-3" x="161.8" y="189.09" width="17.95" height="0.76"/><rect class="cls-3" x="161.8" y="198.82" width="17.95" height="0.76"/><rect class="cls-3" x="161.8" y="190.71" width="5.24" height="0.76"/><rect class="cls-3" x="167.44" y="190.71" width="8.77" height="0.76"/><rect class="cls-3" x="176.62" y="190.71" width="3.13" height="0.76"/><rect class="cls-3" x="161.8" y="197.2" width="4.06" height="0.76"/><rect class="cls-3" x="166.26" y="197.2" width="13.49" height="0.76"/><rect class="cls-3" x="161.8" y="200.44" width="7" height="0.76"/><rect class="cls-3" x="161.8" y="195.57" width="10.64" height="0.76"/><rect class="cls-3" x="172.84" y="195.57" width="6.91" height="0.76"/><rect class="cls-3" x="168.53" y="193.95" width="11.22" height="0.76"/><rect class="cls-3" x="161.8" y="193.95" width="6.32" height="0.76"/><rect class="cls-3" x="161.8" y="192.33" width="8.51" height="0.76"/><rect class="cls-3" x="170.71" y="192.33" width="6.93" height="0.76"/><rect class="cls-27" x="182.7" y="186.2" width="20.92" height="20.15"/><rect class="cls-25" x="184.21" y="202.19" width="17.95" height="2.97"/><rect class="cls-3" x="184.21" y="187.47" width="11.81" height="0.76"/><rect class="cls-3" x="184.21" y="189.09" width="17.95" height="0.76"/><rect class="cls-3" x="184.21" y="198.82" width="17.95" height="0.76"/><rect class="cls-3" x="184.21" y="190.71" width="5.24" height="0.76"/><rect class="cls-3" x="189.85" y="190.71" width="8.77" height="0.76"/><rect class="cls-3" x="199.03" y="190.71" width="3.13" height="0.76"/><rect class="cls-3" x="184.21" y="197.2" width="4.06" height="0.76"/><rect class="cls-3" x="188.67" y="197.2" width="13.49" height="0.76"/><rect class="cls-3" x="184.21" y="200.44" width="7" height="0.76"/><rect class="cls-3" x="184.21" y="195.57" width="10.64" height="0.76"/><rect class="cls-3" x="195.25" y="195.57" width="6.91" height="0.76"/><rect class="cls-3" x="190.94" y="193.95" width="11.22" height="0.76"/><rect class="cls-3" x="184.21" y="193.95" width="6.32" height="0.76"/><rect class="cls-3" x="184.21" y="192.33" width="8.51" height="0.76"/><rect class="cls-3" x="193.12" y="192.33" width="6.93" height="0.76"/><rect class="cls-28" x="205.11" y="186.2" width="20.92" height="20.15"/><rect class="cls-25" x="206.62" y="202.19" width="17.95" height="2.97"/><rect class="cls-3" x="206.62" y="187.47" width="11.81" height="0.76"/><rect class="cls-3" x="206.62" y="189.09" width="17.95" height="0.76"/><rect class="cls-3" x="206.62" y="198.82" width="17.95" height="0.76"/><rect class="cls-3" x="206.62" y="190.71" width="5.24" height="0.76"/><rect class="cls-3" x="212.26" y="190.71" width="8.77" height="0.76"/><rect class="cls-3" x="221.44" y="190.71" width="3.13" height="0.76"/><rect class="cls-3" x="206.62" y="197.2" width="4.06" height="0.76"/><rect class="cls-3" x="211.08" y="197.2" width="13.49" height="0.76"/><rect class="cls-3" x="206.62" y="200.44" width="7" height="0.76"/><rect class="cls-3" x="206.62" y="195.57" width="10.64" height="0.76"/><rect class="cls-3" x="217.66" y="195.57" width="6.91" height="0.76"/><rect class="cls-3" x="213.35" y="193.95" width="11.22" height="0.76"/><rect class="cls-3" x="206.62" y="193.95" width="6.32" height="0.76"/><rect class="cls-3" x="206.62" y="192.33" width="8.51" height="0.76"/><rect class="cls-3" x="215.54" y="192.33" width="6.93" height="0.76"/><rect class="cls-29" x="227.52" y="186.2" width="20.92" height="20.15"/><rect class="cls-25" x="229.04" y="202.19" width="17.95" height="2.97"/><rect class="cls-3" x="229.04" y="187.47" width="11.81" height="0.76"/><rect class="cls-3" x="229.04" y="189.09" width="17.95" height="0.76"/><rect class="cls-3" x="229.04" y="198.82" width="17.95" height="0.76"/><rect class="cls-3" x="229.04" y="190.71" width="5.24" height="0.76"/><rect class="cls-3" x="234.68" y="190.71" width="8.77" height="0.76"/><rect class="cls-3" x="243.85" y="190.71" width="3.13" height="0.76"/><rect class="cls-3" x="229.04" y="197.2" width="4.06" height="0.76"/><rect class="cls-3" x="233.49" y="197.2" width="13.49" height="0.76"/><rect class="cls-3" x="229.04" y="200.44" width="7" height="0.76"/><rect class="cls-3" x="229.04" y="195.57" width="10.64" height="0.76"/><rect class="cls-3" x="240.07" y="195.57" width="6.91" height="0.76"/><rect class="cls-3" x="235.76" y="193.95" width="11.22" height="0.76"/><rect class="cls-3" x="229.04" y="193.95" width="6.32" height="0.76"/><rect class="cls-3" x="229.04" y="192.33" width="8.51" height="0.76"/><rect class="cls-3" x="237.95" y="192.33" width="6.93" height="0.76"/><rect class="cls-25" x="249.77" y="186.2" width="5.01" height="1.34"/><rect class="cls-25" x="256.52" y="186.2" width="2.88" height="1.34"/><rect class="cls-25" x="249.77" y="188.42" width="5.01" height="1.34"/><rect class="cls-25" x="256.52" y="188.42" width="2.88" height="1.34"/><rect class="cls-25" x="249.77" y="190.64" width="5.01" height="1.34"/><rect class="cls-25" x="256.52" y="190.64" width="2.88" height="1.34"/><rect class="cls-25" x="249.77" y="192.85" width="5.01" height="1.34"/><rect class="cls-25" x="256.52" y="192.85" width="2.88" height="1.34"/><rect class="cls-25" x="249.77" y="195.07" width="5.01" height="1.34"/><rect class="cls-25" x="256.52" y="195.07" width="2.88" height="1.34"/><rect class="cls-25" x="249.77" y="197.29" width="5.01" height="1.34"/><rect class="cls-25" x="256.52" y="197.29" width="2.88" height="1.34"/><rect class="cls-25" x="249.77" y="199.51" width="5.01" height="1.34"/><rect class="cls-25" x="256.52" y="199.51" width="2.88" height="1.34"/><rect class="cls-25" x="249.77" y="201.72" width="5.01" height="1.34"/><rect class="cls-25" x="256.52" y="201.72" width="2.88" height="1.34"/><rect class="cls-3" x="257.91" y="141.76" width="1.49" height="1.49"/><rect class="cls-3" x="256" y="141.76" width="1.49" height="1.49"/><rect class="cls-3" x="160.29" y="141.76" width="9.65" height="1.49"/><rect class="cls-3" x="254.09" y="141.76" width="1.49" height="1.49"/><rect class="cls-3" x="252.18" y="141.76" width="1.49" height="1.49"/><rect class="cls-30" x="140.44" y="169.96" width="32.7" height="66.19" rx="2.29"/><path class="cls-19" d="M170.85,170H142.73a2.3,2.3,0,0,0-2.29,2.3v61.61a2.3,2.3,0,0,0,2.29,2.29h28.12a2.3,2.3,0,0,0,2.3-2.29V172.26A2.3,2.3,0,0,0,170.85,170Zm.91,63.91a.91.91,0,0,1-.91.9H142.73a.91.91,0,0,1-.9-.9V172.26a.91.91,0,0,1,.9-.91h28.12a.91.91,0,0,1,.91.91Z"/><rect class="cls-31" x="143.04" y="173.46" width="27.52" height="11.85"/><rect class="cls-32" x="143.04" y="202.93" width="8.51" height="7.7"/><rect class="cls-33" x="152.54" y="202.93" width="8.51" height="7.7"/><rect class="cls-34" x="162.04" y="202.93" width="8.51" height="7.7"/><rect class="cls-3" x="143.04" y="186.87" width="27.52" height="1.04"/><rect class="cls-3" x="143.04" y="188.81" width="27.52" height="1.04"/><rect class="cls-3" x="143.04" y="229.73" width="27.52" height="1.04"/><rect class="cls-3" x="143.04" y="231.67" width="18.01" height="1.04"/><rect class="cls-3" x="143.04" y="190.75" width="27.52" height="1.04"/><rect class="cls-3" x="143.04" y="194.62" width="27.52" height="1.04"/><rect class="cls-25" x="143.04" y="198.49" width="27.52" height="1.04"/><rect class="cls-3" x="163.24" y="192.68" width="7.32" height="1.04"/><rect class="cls-3" x="143.04" y="196.55" width="11.03" height="1.04"/><rect class="cls-3" x="154.99" y="196.55" width="15.56" height="1.04"/><rect class="cls-3" x="143.04" y="200.43" width="17.26" height="1.04"/><rect class="cls-25" x="143.04" y="192.68" width="7.67" height="1.04"/><rect class="cls-25" x="151.63" y="192.68" width="10.68" height="1.04"/><rect class="cls-3" x="143.85" y="174.21" width="18.46" height="10.36"/><rect class="cls-3" x="163.24" y="174.21" width="6.45" height="0.88"/><rect class="cls-3" x="163.24" y="175.79" width="6.45" height="0.88"/><rect class="cls-3" x="163.24" y="177.37" width="6.45" height="0.88"/><rect class="cls-3" x="163.24" y="178.94" width="6.45" height="0.88"/><rect class="cls-3" x="163.24" y="180.52" width="6.45" height="0.88"/><rect class="cls-3" x="163.24" y="182.1" width="3.66" height="0.88"/><rect class="cls-3" x="144.06" y="204.03" width="6.45" height="0.88"/><rect class="cls-3" x="144.06" y="205.61" width="6.45" height="0.88"/><rect class="cls-3" x="144.06" y="207.19" width="6.45" height="0.88"/><rect class="cls-3" x="144.06" y="208.76" width="3.66" height="0.88"/><rect class="cls-3" x="153.57" y="204.03" width="6.45" height="0.88"/><rect class="cls-3" x="153.57" y="205.61" width="6.45" height="0.88"/><rect class="cls-3" x="153.57" y="207.19" width="6.45" height="0.88"/><rect class="cls-3" x="153.57" y="208.76" width="3.66" height="0.88"/><rect class="cls-3" x="163.07" y="204.03" width="6.45" height="0.88"/><rect class="cls-3" x="163.07" y="205.61" width="6.45" height="0.88"/><rect class="cls-3" x="163.07" y="207.19" width="6.45" height="0.88"/><rect class="cls-3" x="163.07" y="208.76" width="3.66" height="0.88"/><rect class="cls-35" x="143.04" y="211.62" width="8.51" height="7.7"/><rect class="cls-36" x="152.54" y="211.62" width="8.51" height="7.7"/><rect class="cls-37" x="162.04" y="211.62" width="8.51" height="7.7"/><rect class="cls-3" x="144.06" y="212.72" width="6.45" height="0.88"/><rect class="cls-3" x="144.06" y="214.29" width="6.45" height="0.88"/><rect class="cls-3" x="144.06" y="215.87" width="6.45" height="0.88"/><rect class="cls-3" x="144.06" y="217.45" width="3.66" height="0.88"/><rect class="cls-3" x="153.57" y="212.72" width="6.45" height="0.88"/><rect class="cls-3" x="153.57" y="214.29" width="6.45" height="0.88"/><rect class="cls-3" x="153.57" y="215.87" width="6.45" height="0.88"/><rect class="cls-3" x="153.57" y="217.45" width="3.66" height="0.88"/><rect class="cls-3" x="163.07" y="212.72" width="6.45" height="0.88"/><rect class="cls-3" x="163.07" y="214.29" width="6.45" height="0.88"/><rect class="cls-3" x="163.07" y="215.87" width="6.45" height="0.88"/><rect class="cls-3" x="163.07" y="217.45" width="3.66" height="0.88"/><rect class="cls-38" x="143.04" y="220.3" width="8.51" height="7.7"/><rect class="cls-39" x="152.54" y="220.3" width="8.51" height="7.7"/><rect class="cls-40" x="162.04" y="220.3" width="8.51" height="7.7"/><rect class="cls-3" x="144.06" y="221.4" width="6.45" height="0.88"/><rect class="cls-3" x="144.06" y="222.98" width="6.45" height="0.88"/><rect class="cls-3" x="144.06" y="224.56" width="6.45" height="0.88"/><rect class="cls-3" x="144.06" y="226.14" width="3.66" height="0.88"/><rect class="cls-3" x="153.57" y="221.4" width="6.45" height="0.88"/><rect class="cls-3" x="153.57" y="222.98" width="6.45" height="0.88"/><rect class="cls-3" x="153.57" y="224.56" width="6.45" height="0.88"/><rect class="cls-3" x="153.57" y="226.14" width="3.66" height="0.88"/><rect class="cls-3" x="163.07" y="221.4" width="6.45" height="0.88"/><rect class="cls-3" x="163.07" y="222.98" width="6.45" height="0.88"/><rect class="cls-3" x="163.07" y="224.56" width="6.45" height="0.88"/><rect class="cls-3" x="163.07" y="226.14" width="3.66" height="0.88"/><polygon class="cls-41" points="219.82 0 120.38 0 120.85 51.04 212.58 51.04 212.58 51.04 219.82 0"/><polygon class="cls-42" points="164.75 20.98 123.22 20.98 123.13 2.21 165.88 2.21 164.75 20.98"/><polygon class="cls-3" points="142.36 12.46 124.65 12.46 124.63 3.17 142.59 3.17 142.36 12.46"/><polygon class="cls-3" points="164.11 3.84 143.28 3.84 143.29 3.17 164.15 3.17 164.11 3.84"/><polygon class="cls-3" points="164.04 5.07 143.25 5.07 143.26 4.41 164.08 4.41 164.04 5.07"/><polygon class="cls-3" points="163.97 6.3 143.21 6.3 143.23 5.64 164.01 5.64 163.97 6.3"/><polygon class="cls-3" points="163.83 8.77 143.15 8.77 143.17 8.1 163.86 8.1 163.83 8.77"/><polygon class="cls-3" points="163.68 11.23 143.09 11.23 143.1 10.57 163.72 10.57 163.68 11.23"/><polygon class="cls-3" points="163.54 13.7 124.66 13.7 124.66 13.03 163.58 13.03 163.54 13.7"/><polygon class="cls-3" points="163.26 18.63 124.67 18.63 124.67 17.96 163.3 17.96 163.26 18.63"/><polygon class="cls-3" points="148.87 19.86 124.67 19.86 124.67 19.19 148.9 19.19 148.87 19.86"/><polygon class="cls-3" points="158.42 6.87 158.39 7.54 163.9 7.54 163.94 6.87 158.42 6.87"/><polygon class="cls-3" points="151.42 9.34 143.13 9.34 143.12 10 151.39 10 151.42 9.34"/><polygon class="cls-3" points="152.11 9.34 152.09 10 163.75 10 163.79 9.34 152.11 9.34"/><polygon class="cls-3" points="155.98 11.8 143.07 11.8 143.06 12.46 155.95 12.46 155.98 11.8"/><polygon class="cls-3" points="156.68 11.8 156.64 12.46 163.61 12.46 163.65 11.8 156.68 11.8"/><polygon class="cls-3" points="145.71 14.26 145.69 14.93 163.47 14.93 163.51 14.26 145.71 14.26"/><polygon class="cls-3" points="145.01 14.26 124.66 14.26 124.66 14.93 145 14.93 145.01 14.26"/><polygon class="cls-3" points="151.82 16.73 124.67 16.73 124.67 17.39 151.79 17.39 151.82 16.73"/><polygon class="cls-3" points="152.51 16.73 152.48 17.39 163.33 17.39 163.37 16.73 152.51 16.73"/><polygon class="cls-3" points="134.4 15.5 124.66 15.5 124.66 16.16 134.39 16.16 134.4 15.5"/><polygon class="cls-3" points="135.09 15.5 135.08 16.16 163.4 16.16 163.44 15.5 135.09 15.5"/><polygon class="cls-3" points="148.98 6.87 143.2 6.87 143.18 7.54 148.96 7.54 148.98 6.87"/><polygon class="cls-3" points="149.68 6.87 149.65 7.54 157.69 7.54 157.72 6.87 149.68 6.87"/><polygon class="cls-43" points="164.03 32.95 123.29 32.95 123.23 22.65 164.65 22.65 164.03 32.95"/><polygon class="cls-44" points="163.07 48.85 123.37 48.85 123.29 34.54 163.94 34.54 163.07 48.85"/><polygon class="cls-3" points="152.02 25.82 124.69 25.82 124.69 25.42 152.03 25.42 152.02 25.82"/><polygon class="cls-3" points="130.88 24.57 124.69 24.57 124.69 24.97 130.87 24.97 130.88 24.57"/><polygon class="cls-3" points="131.49 24.57 131.48 24.97 152.05 24.97 152.07 24.57 131.49 24.57"/><polygon class="cls-3" points="135.35 26.27 124.69 26.27 124.69 26.67 135.34 26.67 135.35 26.27"/><polygon class="cls-3" points="140.94 23.72 124.69 23.72 124.69 24.12 140.93 24.12 140.94 23.72"/><polygon class="cls-3" points="141.55 23.72 141.54 24.12 152.09 24.12 152.1 23.72 141.55 23.72"/><polygon class="cls-3" points="151.85 29.9 124.7 29.9 124.7 29.5 151.87 29.5 151.85 29.9"/><polygon class="cls-3" points="130.85 28.65 124.7 28.65 124.7 29.05 130.84 29.05 130.85 28.65"/><polygon class="cls-3" points="131.45 28.65 131.45 29.05 151.89 29.05 151.91 28.65 131.45 28.65"/><polygon class="cls-3" points="135.29 30.35 124.7 30.35 124.7 30.75 135.29 30.75 135.29 30.35"/><polygon class="cls-3" points="140.84 27.8 124.7 27.8 124.7 28.2 140.83 28.2 140.84 27.8"/><polygon class="cls-3" points="141.45 27.8 141.44 28.2 151.92 28.2 151.94 27.8 141.45 27.8"/><polygon class="cls-25" points="162.89 24.97 157.42 24.97 157.48 23.72 162.97 23.72 162.89 24.97"/><polygon class="cls-25" points="162.8 26.67 157.33 26.67 157.4 25.42 162.87 25.42 162.8 26.67"/><polygon class="cls-25" points="162.7 28.37 157.25 28.37 157.31 27.12 162.77 27.12 162.7 28.37"/><polygon class="cls-25" points="162.6 30.07 157.17 30.07 157.23 28.82 162.67 28.82 162.6 30.07"/><path class="cls-3" d="M124.48,35.06l0,13.32h37.12l.77-13.32Zm.32,4.43h30.76l-.83.5-3.42,1.15h-2.54l-.49-.56-1.21.56H124.81Zm26.26,1.73-1.72.58-.5-.58Zm-26.25,0h22.08l-3.54,1.65h-7l-.15-.11-.29.11H124.81Zm13.82,3.38L136.41,43h6.77l-3.52,1.65Zm.85.08-.46.22-.28-.22Zm-1.82-.08h-7.29l1.33-.92,1.34.92,3-1.2ZM124.81,43h10.85l-2.53,1-1.42-1-2.34,1.62h-4.56Zm0,1.73h4.44l-2.38,1.65h-2.05Zm1.94,1.73-1.93,1.35V46.41Zm34.6,1.7h-2.84l0-.52h-.23l0,.52h-2.91l0-.52h-.22l0,.52h-2.91l0-.52H152l0,.52h-2.91l0-.52h-.23l0,.52H146l0-.52h-.23l0,.52h-2.91v-.52h-.22l0,.52h-2.91v-.52h-.23v.52h-2.91v-.52h-.23v.52h-2.91v-.52h-.23v.52h-2.91v-.52H130v.52h-2.91v-.52h-.23v.52h-1.56l2.43-1.7h33.7Zm.1-1.78H127.87l2.38-1.65h7.52l1.17.88,1.85-.88h20.75Zm.1-1.73H141L144.49,43h17.15Zm.1-1.73h-17l3.42-1.59,1,1.18,3.68-1.24h9Zm.1-1.73H153l1.92-.65,1.68-1h5.2Zm.1-1.73h-5.08l4.16-2.48-.33-.45-4.9,2.93H124.8V35.33h37.29Z"/><polygon class="cls-45" points="212.05 32.95 166.22 32.95 168.18 2.21 216.26 2.21 212.05 32.95"/><polygon class="cls-3" points="181.43 4.28 169.81 4.28 169.85 3.66 181.48 3.66 181.43 4.28"/><polygon class="cls-3" points="187.34 5.63 169.72 5.63 169.76 5 187.4 5 187.34 5.63"/><polygon class="cls-3" points="186.59 13.67 169.19 13.67 169.23 13.05 186.64 13.05 186.59 13.67"/><polygon class="cls-3" points="174.81 6.34 169.68 6.34 169.63 6.97 174.77 6.97 174.81 6.34"/><polygon class="cls-3" points="183.81 6.34 175.21 6.34 175.16 6.97 183.75 6.97 183.81 6.34"/><polygon class="cls-3" points="184.2 6.34 184.14 6.97 187.21 6.97 187.27 6.34 184.2 6.34"/><polygon class="cls-3" points="173.26 11.71 169.32 11.71 169.28 12.33 173.22 12.33 173.26 11.71"/><polygon class="cls-3" points="173.65 11.71 173.61 12.33 186.71 12.33 186.77 11.71 173.65 11.71"/><polygon class="cls-3" points="175.92 14.39 169.14 14.39 169.1 15.01 175.88 15.01 175.92 14.39"/><polygon class="cls-3" points="179.77 10.36 169.41 10.36 169.37 10.99 179.72 10.99 179.77 10.36"/><polygon class="cls-3" points="180.16 10.36 180.11 10.99 186.84 10.99 186.9 10.36 180.16 10.36"/><polygon class="cls-3" points="176.06 9.02 176.01 9.65 186.96 9.65 187.02 9.02 176.06 9.02"/><polygon class="cls-3" points="175.67 9.02 169.5 9.02 169.46 9.65 175.62 9.65 175.67 9.02"/><polygon class="cls-3" points="177.91 7.68 169.59 7.68 169.55 8.31 177.87 8.31 177.91 7.68"/><polygon class="cls-3" points="185.09 7.68 178.31 7.68 178.25 8.31 185.03 8.31 185.09 7.68"/><polygon class="cls-3" points="180.26 18.22 168.89 18.22 168.93 17.59 180.31 17.59 180.26 18.22"/><polygon class="cls-3" points="186.04 19.56 168.8 19.56 168.84 18.94 186.09 18.94 186.04 19.56"/><polygon class="cls-3" points="185.28 27.61 168.27 27.61 168.31 26.98 185.34 26.98 185.28 27.61"/><polygon class="cls-3" points="173.78 20.28 168.75 20.28 168.71 20.91 173.73 20.91 173.78 20.28"/><polygon class="cls-3" points="182.58 20.28 174.16 20.28 174.12 20.91 182.52 20.91 182.58 20.28"/><polygon class="cls-3" points="182.96 20.28 182.91 20.91 185.91 20.91 185.97 20.28 182.96 20.28"/><polygon class="cls-3" points="172.25 25.64 168.4 25.64 168.35 26.27 172.21 26.27 172.25 25.64"/><polygon class="cls-3" points="172.63 25.64 172.59 26.27 185.41 26.27 185.47 25.64 172.63 25.64"/><polygon class="cls-3" points="174.85 28.33 168.22 28.33 168.18 28.95 174.8 28.95 174.85 28.33"/><polygon class="cls-3" points="178.63 24.3 168.49 24.3 168.44 24.93 178.57 24.93 178.63 24.3"/><polygon class="cls-3" points="179.01 24.3 178.95 24.93 185.54 24.93 185.59 24.3 179.01 24.3"/><polygon class="cls-3" points="175 22.96 174.95 23.59 185.66 23.59 185.72 22.96 175 22.96"/><polygon class="cls-3" points="174.62 22.96 168.57 22.96 168.53 23.59 174.57 23.59 174.62 22.96"/><polygon class="cls-3" points="176.81 21.62 168.66 21.62 168.62 22.25 176.76 22.25 176.81 21.62"/><polygon class="cls-3" points="183.83 21.62 177.19 21.62 177.14 22.25 183.77 22.25 183.83 21.62"/><polygon class="cls-3" points="194.01 6.68 189.77 6.68 190.06 3.66 194.32 3.66 194.01 6.68"/><polygon class="cls-3" points="198.97 6.68 194.73 6.68 195.05 3.66 199.31 3.66 198.97 6.68"/><polygon class="cls-3" points="203.93 6.68 199.69 6.68 200.03 3.66 204.29 3.66 203.93 6.68"/><polygon class="cls-3" points="208.89 6.68 204.65 6.68 205.02 3.66 209.27 3.66 208.89 6.68"/><polygon class="cls-25" points="213.85 6.68 209.61 6.68 210 3.66 214.26 3.66 213.85 6.68"/><polygon class="cls-25" points="193.64 10.28 189.42 10.28 189.72 7.26 193.95 7.26 193.64 10.28"/><polygon class="cls-25" points="198.57 10.28 194.35 10.28 194.67 7.26 198.91 7.26 198.57 10.28"/><polygon class="cls-3" points="203.5 10.28 199.29 10.28 199.63 7.26 203.86 7.26 203.5 10.28"/><polygon class="cls-3" points="208.44 10.28 204.22 10.28 204.58 7.26 208.82 7.26 208.44 10.28"/><polygon class="cls-3" points="213.37 10.28 209.15 10.28 209.54 7.26 213.77 7.26 213.37 10.28"/><polygon class="cls-3" points="193.26 13.88 189.07 13.88 189.37 10.86 193.58 10.86 193.26 13.88"/><polygon class="cls-3" points="198.17 13.88 193.98 13.88 194.29 10.86 198.5 10.86 198.17 13.88"/><polygon class="cls-3" points="203.07 13.88 198.88 13.88 199.22 10.86 203.43 10.86 203.07 13.88"/><polygon class="cls-25" points="207.98 13.88 203.79 13.88 204.15 10.86 208.36 10.86 207.98 13.88"/><polygon class="cls-3" points="212.88 13.88 208.69 13.88 209.08 10.86 213.29 10.86 212.88 13.88"/><polygon class="cls-3" points="192.89 17.48 188.72 17.48 189.01 14.46 193.2 14.46 192.89 17.48"/><polygon class="cls-3" points="197.77 17.48 193.6 17.48 193.92 14.46 198.1 14.46 197.77 17.48"/><polygon class="cls-3" points="202.65 17.48 198.48 17.48 198.82 14.46 203 14.46 202.65 17.48"/><polygon class="cls-3" points="207.52 17.48 203.36 17.48 203.72 14.46 207.91 14.46 207.52 17.48"/><polygon class="cls-3" points="212.4 17.48 208.23 17.48 208.62 14.46 212.81 14.46 212.4 17.48"/><polygon class="cls-3" points="192.52 21.08 188.37 21.08 188.66 18.06 192.83 18.06 192.52 21.08"/><polygon class="cls-25" points="197.37 21.08 193.22 21.08 193.54 18.06 197.7 18.06 197.37 21.08"/><polygon class="cls-3" points="202.22 21.08 198.07 21.08 198.41 18.06 202.58 18.06 202.22 21.08"/><polygon class="cls-3" points="207.07 21.08 202.92 21.08 203.29 18.06 207.45 18.06 207.07 21.08"/><polygon class="cls-3" points="211.92 21.08 207.77 21.08 208.16 18.06 212.32 18.06 211.92 21.08"/><polygon class="cls-3" points="192.14 24.68 188.02 24.68 188.31 21.66 192.46 21.66 192.14 24.68"/><polygon class="cls-3" points="196.97 24.68 192.84 24.68 193.16 21.66 197.3 21.66 196.97 24.68"/><polygon class="cls-3" points="201.79 24.68 197.67 24.68 198.01 21.66 202.15 21.66 201.79 24.68"/><polygon class="cls-3" points="206.61 24.68 202.49 24.68 202.85 21.66 206.99 21.66 206.61 24.68"/><polygon class="cls-3" points="211.44 24.68 207.31 24.68 207.7 21.66 211.84 21.66 211.44 24.68"/><polygon class="cls-3" points="191.77 28.29 187.67 28.29 187.97 25.27 192.08 25.27 191.77 28.29"/><polygon class="cls-25" points="196.56 28.29 192.47 28.29 192.78 25.27 196.9 25.27 196.56 28.29"/><polygon class="cls-3" points="201.36 28.29 197.26 28.29 197.6 25.27 201.72 25.27 201.36 28.29"/><polygon class="cls-3" points="206.16 28.29 202.06 28.29 202.42 25.27 206.54 25.27 206.16 28.29"/><polygon class="cls-3" points="196.15 35.21 166.1 35.21 166.15 34.54 196.22 34.54 196.15 35.21"/><polygon class="cls-3" points="211.54 36.65 166.01 36.65 166.05 35.98 211.63 35.98 211.54 36.65"/><polygon class="cls-25" points="210.36 45.29 165.46 45.29 165.5 44.62 210.45 44.62 210.36 45.29"/><polygon class="cls-3" points="179.24 37.42 165.96 37.42 165.92 38.09 179.18 38.09 179.24 37.42"/><polygon class="cls-3" points="202.48 37.42 180.25 37.42 180.19 38.09 202.4 38.09 202.48 37.42"/><polygon class="cls-3" points="203.49 37.42 203.41 38.09 211.34 38.09 211.44 37.42 203.49 37.42"/><polygon class="cls-3" points="175.78 43.18 165.6 43.18 165.55 43.85 175.72 43.85 175.78 43.18"/><polygon class="cls-3" points="176.78 43.18 176.72 43.85 210.55 43.85 210.65 43.18 176.78 43.18"/><polygon class="cls-3" points="182.91 46.06 165.41 46.06 165.37 46.73 182.85 46.73 182.91 46.06"/><polygon class="cls-25" points="192.45 41.74 165.69 41.74 165.65 42.41 192.38 42.41 192.45 41.74"/><polygon class="cls-25" points="193.46 41.74 193.38 42.41 210.75 42.41 210.84 41.74 193.46 41.74"/><polygon class="cls-3" points="182.74 40.3 182.67 40.97 210.95 40.97 211.04 40.3 182.74 40.3"/><polygon class="cls-3" points="181.73 40.3 165.78 40.3 165.74 40.97 181.67 40.97 181.73 40.3"/><polygon class="cls-25" points="187.39 38.86 165.87 38.86 165.83 39.53 187.32 39.53 187.39 38.86"/><polygon class="cls-3" points="205.92 38.86 188.4 38.86 188.33 39.53 205.83 39.53 205.92 38.86"/><path class="cls-19" d="M176.59,34a4.77,4.77,0,0,0-1.09-2.81h0a1.46,1.46,0,0,0-1.1-.44H30.4a1.34,1.34,0,0,0-1.13.51h0a6.43,6.43,0,0,0-1,2.74h1.29L42.13,86.17a1.83,1.83,0,0,0,1.68,1.36H164.15a1.71,1.71,0,0,0,1.61-1.36L175.42,34Z"/><path class="cls-46" d="M175.07,32.74H29.7a1.29,1.29,0,0,0-1.41,1.43l9,56.87A1.76,1.76,0,0,0,39,92.47H170.51A1.6,1.6,0,0,0,172.1,91l4.49-56.87A1.41,1.41,0,0,0,175.07,32.74Z"/><path class="cls-47" d="M175.07,32.74H29.7a1.29,1.29,0,0,0-1.41,1.43l9,56.87A1.76,1.76,0,0,0,39,92.47H170.51A1.6,1.6,0,0,0,172.1,91l4.49-56.87A1.41,1.41,0,0,0,175.07,32.74Zm-4.91,57.82h-131L30.54,34.65H174.38Z"/><polygon class="cls-48" points="167.72 41.48 33.8 41.48 33.01 36.24 168.06 36.24 167.72 41.48"/><polygon class="cls-49" points="94.68 69.06 37.95 69.06 34.02 42.91 93.25 42.91 94.68 69.06"/><polygon class="cls-3" points="59.16 55.4 37.06 55.4 35.37 44.01 57.88 44.01 59.16 55.4"/><polygon class="cls-3" points="60.56 67.86 38.92 67.86 37.22 56.47 59.28 56.47 60.56 67.86"/><polygon class="cls-3" points="93.15 61.97 83.88 61.97 82.58 44.01 92.13 44.01 93.15 61.97"/><polygon class="cls-3" points="93.48 67.86 84.3 67.86 83.93 62.68 93.19 62.68 93.48 67.86"/><polygon class="cls-3" points="81.55 44.6 59.06 44.6 58.99 44.01 81.51 44.01 81.55 44.6"/><polygon class="cls-3" points="81.64 45.77 59.19 45.77 59.12 45.18 81.59 45.18 81.64 45.77"/><polygon class="cls-3" points="81.72 46.93 59.32 46.93 59.25 46.34 81.68 46.34 81.72 46.93"/><polygon class="cls-3" points="81.81 48.1 59.45 48.1 59.38 47.51 81.77 47.51 81.81 48.1"/><polygon class="cls-3" points="81.89 49.26 59.57 49.26 59.51 48.67 81.85 48.67 81.89 49.26"/><polygon class="cls-3" points="81.98 50.43 59.7 50.43 59.64 49.84 81.94 49.84 81.98 50.43"/><polygon class="cls-3" points="82.07 51.59 59.83 51.59 59.77 51 82.02 51 82.07 51.59"/><polygon class="cls-3" points="73.2 52.76 59.96 52.76 59.9 52.17 73.15 52.17 73.2 52.76"/><polygon class="cls-3" points="43.24 40.47 34.84 40.47 34.36 37.25 42.81 37.25 43.24 40.47"/><polygon class="cls-3" points="166.7 38.86 164.73 38.86 164.83 37.25 166.81 37.25 166.7 38.86"/><polygon class="cls-3" points="163.96 38.86 161.99 38.86 162.08 37.25 164.06 37.25 163.96 38.86"/><polygon class="cls-3" points="161.22 38.86 159.25 38.86 159.33 37.25 161.31 37.25 161.22 38.86"/><polygon class="cls-3" points="158.48 38.86 156.51 38.86 156.58 37.25 158.56 37.25 158.48 38.86"/><polygon class="cls-3" points="53.98 38.02 43.71 38.02 43.6 37.25 53.89 37.25 53.98 38.02"/><polygon class="cls-3" points="52.28 39.24 43.87 39.24 43.77 38.47 52.19 38.47 52.28 39.24"/><polygon class="cls-25" points="103.35 44.31 97.72 44.31 97.65 42.91 103.3 42.91 103.35 44.31"/><polygon class="cls-25" points="108.56 44.31 105.32 44.31 105.27 42.91 108.52 42.91 108.56 44.31"/><polygon class="cls-25" points="103.46 47.04 97.85 47.04 97.78 45.64 103.41 45.64 103.46 47.04"/><polygon class="cls-25" points="108.64 47.04 105.41 47.04 105.36 45.64 108.6 45.64 108.64 47.04"/><polygon class="cls-25" points="103.56 49.78 97.98 49.78 97.91 48.38 103.51 48.38 103.56 49.78"/><polygon class="cls-25" points="108.72 49.78 105.51 49.78 105.46 48.38 108.68 48.38 108.72 49.78"/><polygon class="cls-25" points="103.67 52.51 98.11 52.51 98.04 51.11 103.62 51.11 103.67 52.51"/><polygon class="cls-25" points="108.81 52.51 105.61 52.51 105.56 51.11 108.76 51.11 108.81 52.51"/><polygon class="cls-25" points="103.78 55.25 98.24 55.25 98.17 53.85 103.72 53.85 103.78 55.25"/><polygon class="cls-25" points="108.89 55.25 105.7 55.25 105.66 53.85 108.85 53.85 108.89 55.25"/><polygon class="cls-25" points="103.88 57.98 98.37 57.98 98.3 56.58 103.83 56.58 103.88 57.98"/><polygon class="cls-25" points="108.97 57.98 105.8 57.98 105.75 56.58 108.93 56.58 108.97 57.98"/><polygon class="cls-25" points="103.99 60.72 98.5 60.72 98.43 59.32 103.93 59.32 103.99 60.72"/><polygon class="cls-25" points="109.05 60.72 105.9 60.72 105.85 59.32 109.01 59.32 109.05 60.72"/><polygon class="cls-25" points="104.09 63.45 98.63 63.45 98.56 62.05 104.04 62.05 104.09 63.45"/><polygon class="cls-25" points="109.14 63.45 105.99 63.45 105.94 62.05 109.09 62.05 109.14 63.45"/><polygon class="cls-25" points="104.2 66.19 98.76 66.19 98.69 64.79 104.14 64.79 104.2 66.19"/><polygon class="cls-25" points="109.22 66.19 106.09 66.19 106.04 64.79 109.17 64.79 109.22 66.19"/><polygon class="cls-25" points="104.3 68.92 98.89 68.92 98.82 67.53 104.25 67.53 104.3 68.92"/><polygon class="cls-25" points="109.3 68.92 106.19 68.92 106.14 67.53 109.26 67.53 109.3 68.92"/><polygon class="cls-25" points="104.41 71.66 99.02 71.66 98.95 70.26 104.35 70.26 104.41 71.66"/><polygon class="cls-25" points="109.38 71.66 106.28 71.66 106.23 70.26 109.34 70.26 109.38 71.66"/><polygon class="cls-25" points="104.51 74.39 99.15 74.39 99.08 73 104.46 73 104.51 74.39"/><polygon class="cls-25" points="109.47 74.39 106.38 74.39 106.33 73 109.42 73 109.47 74.39"/><polygon class="cls-25" points="104.62 77.13 99.28 77.13 99.21 75.73 104.56 75.73 104.62 77.13"/><polygon class="cls-25" points="109.55 77.13 106.48 77.13 106.43 75.73 109.5 75.73 109.55 77.13"/><polygon class="cls-3" points="150.24 43.66 116.84 43.66 116.83 42.91 150.27 42.91 150.24 43.66"/><polygon class="cls-3" points="167.47 45.28 116.87 45.28 116.86 44.52 167.52 44.52 167.47 45.28"/><polygon class="cls-3" points="166.83 54.97 117.03 54.97 117.02 54.21 166.88 54.21 166.83 54.97"/><polygon class="cls-3" points="166.52 59.81 117.11 59.81 117.1 59.06 166.57 59.06 166.52 59.81"/><polygon class="cls-3" points="166.31 63.04 117.17 63.04 117.15 62.29 166.35 62.29 166.31 63.04"/><polygon class="cls-3" points="131.64 46.14 116.89 46.14 116.9 46.89 131.63 46.89 131.64 46.14"/><polygon class="cls-3" points="157.46 46.14 132.76 46.14 132.76 46.89 157.43 46.89 157.46 46.14"/><polygon class="cls-3" points="158.59 46.14 158.55 46.89 167.36 46.89 167.41 46.14 158.59 46.14"/><polygon class="cls-3" points="142.37 60.67 117.13 60.67 117.14 61.43 142.35 61.43 142.37 60.67"/><polygon class="cls-3" points="143.47 60.67 143.44 61.43 166.41 61.43 166.46 60.67 143.47 60.67"/><polygon class="cls-3" points="128.29 52.6 116.99 52.6 117 53.35 128.29 53.35 128.29 52.6"/><polygon class="cls-3" points="129.41 52.6 129.4 53.35 166.94 53.35 166.99 52.6 129.41 52.6"/><polygon class="cls-3" points="136.45 55.83 117.05 55.83 117.06 56.58 136.44 56.58 136.45 55.83"/><polygon class="cls-3" points="146.68 50.98 116.97 50.98 116.98 51.74 146.65 51.74 146.68 50.98"/><polygon class="cls-3" points="147.79 50.98 147.77 51.74 167.05 51.74 167.09 50.98 147.79 50.98"/><polygon class="cls-3" points="135.77 49.37 135.76 50.12 167.15 50.12 167.2 49.37 135.77 49.37"/><polygon class="cls-3" points="134.65 49.37 116.94 49.37 116.95 50.12 134.64 50.12 134.65 49.37"/><polygon class="cls-3" points="140.81 47.75 116.91 47.75 116.92 48.51 140.79 48.51 140.81 47.75"/><polygon class="cls-3" points="161.4 47.75 141.93 47.75 141.92 48.51 161.36 48.51 161.4 47.75"/><polygon class="cls-3" points="132.78 63.9 117.18 63.9 117.19 64.66 132.78 64.66 132.78 63.9"/><polygon class="cls-3" points="133.88 63.9 133.87 64.66 151.75 64.66 151.78 63.9 133.88 63.9"/><polygon class="cls-3" points="149.32 68.28 117.25 68.28 117.24 67.53 149.35 67.53 149.32 68.28"/><polygon class="cls-3" points="165.85 69.89 117.28 69.89 117.27 69.14 165.91 69.14 165.85 69.89"/><polygon class="cls-3" points="165.22 79.58 117.44 79.58 117.43 78.83 165.27 78.83 165.22 79.58"/><polygon class="cls-3" points="164.9 84.43 117.52 84.43 117.51 83.67 164.95 83.67 164.9 84.43"/><polygon class="cls-3" points="164.69 87.66 117.58 87.66 117.56 86.9 164.74 86.9 164.69 87.66"/><polygon class="cls-3" points="131.46 70.75 117.3 70.75 117.31 71.51 131.45 71.51 131.46 70.75"/><polygon class="cls-3" points="156.25 70.75 132.54 70.75 132.53 71.51 156.21 71.51 156.25 70.75"/><polygon class="cls-3" points="157.33 70.75 157.29 71.51 165.75 71.51 165.8 70.75 157.33 70.75"/><polygon class="cls-3" points="141.74 85.29 117.54 85.29 117.55 86.04 141.72 86.04 141.74 85.29"/><polygon class="cls-3" points="142.79 85.29 142.77 86.04 164.8 86.04 164.85 85.29 142.79 85.29"/><polygon class="cls-3" points="128.24 77.21 117.4 77.21 117.42 77.97 128.24 77.97 128.24 77.21"/><polygon class="cls-3" points="129.31 77.21 129.31 77.97 165.33 77.97 165.38 77.21 129.31 77.21"/><polygon class="cls-3" points="136.07 80.44 117.46 80.44 117.47 81.2 136.06 81.2 136.07 80.44"/><polygon class="cls-3" points="145.88 75.6 117.38 75.6 117.39 76.35 145.86 76.35 145.88 75.6"/><polygon class="cls-3" points="146.96 75.6 146.93 76.35 165.43 76.35 165.48 75.6 146.96 75.6"/><polygon class="cls-3" points="135.42 73.98 135.41 74.74 165.54 74.74 165.59 73.98 135.42 73.98"/><polygon class="cls-3" points="134.34 73.98 117.35 73.98 117.36 74.74 134.34 74.74 134.34 73.98"/><polygon class="cls-3" points="140.26 72.37 117.32 72.37 117.33 73.12 140.25 73.12 140.26 72.37"/><polygon class="cls-3" points="160.02 72.37 141.34 72.37 141.32 73.12 159.98 73.12 160.02 72.37"/><polygon class="cls-3" points="132.55 88.52 117.59 88.52 117.6 89.27 132.54 89.27 132.55 88.52"/><polygon class="cls-3" points="133.6 88.52 133.59 89.27 150.73 89.27 150.76 88.52 133.6 88.52"/><polygon class="cls-3" points="61.6 67.6 83.25 67.6 82.22 53.7 79.12 62.66 76.62 59.57 74.16 64.41 71.62 61.24 69.83 64.41 66.13 60.17 61.6 67.6"/><polygon class="cls-50" points="40.66 87.03 95.67 87.03 94.91 73.12 85.83 82.09 79.89 78.99 73 83.83 66.95 80.67 61.99 83.83 53.14 79.6 40.66 87.03"/><circle class="cls-2" cx="77.5" cy="208.98" r="3.09"/><path class="cls-2" d="M79.85,209a2.35,2.35,0,1,1-2.35-2.35A2.36,2.36,0,0,1,79.85,209Z"/><path class="cls-2" d="M79.85,209a2.35,2.35,0,1,1-2.35-2.35A2.36,2.36,0,0,1,79.85,209Z"/><path class="cls-2" d="M80.59,250.4a3.09,3.09,0,1,1-3.09-3.09A3.09,3.09,0,0,1,80.59,250.4Z"/><path class="cls-2" d="M79.85,250.4a2.35,2.35,0,1,1-2.35-2.35A2.35,2.35,0,0,1,79.85,250.4Z"/><path class="cls-2" d="M79.85,250.4a2.35,2.35,0,1,1-2.35-2.35A2.35,2.35,0,0,1,79.85,250.4Z"/><path class="cls-2" d="M116.2,250.4a3.09,3.09,0,1,1-3.09-3.09A3.09,3.09,0,0,1,116.2,250.4Z"/><path class="cls-2" d="M115.46,250.4a2.35,2.35,0,1,1-2.35-2.35A2.35,2.35,0,0,1,115.46,250.4Z"/><path class="cls-2" d="M115.46,250.4a2.35,2.35,0,1,1-2.35-2.35A2.35,2.35,0,0,1,115.46,250.4Z"/><circle class="cls-2" cx="113.11" cy="244.69" r="1.04"/><circle class="cls-2" cx="113.11" cy="244.69" r="0.79"/><circle class="cls-2" cx="113.11" cy="244.69" r="0.79"/><circle class="cls-2" cx="113.11" cy="241.55" r="1.04"/><circle class="cls-2" cx="113.11" cy="241.55" r="0.79"/><circle class="cls-2" cx="113.11" cy="241.55" r="0.79"/><path class="cls-2" d="M114.15,238.42a1,1,0,1,1-1-1A1,1,0,0,1,114.15,238.42Z"/><circle class="cls-2" cx="113.11" cy="238.42" r="0.79"/><circle class="cls-2" cx="113.11" cy="238.42" r="0.79"/><path class="cls-2" d="M114.15,235.28a1,1,0,1,1-1-1A1,1,0,0,1,114.15,235.28Z"/><circle class="cls-2" cx="113.11" cy="235.28" r="0.79"/><circle class="cls-2" cx="113.11" cy="235.28" r="0.79"/><circle class="cls-2" cx="113.11" cy="232.14" r="1.04"/><circle class="cls-2" cx="113.11" cy="232.14" r="0.79"/><circle class="cls-2" cx="113.11" cy="232.14" r="0.79"/><path class="cls-2" d="M114.15,229a1,1,0,1,1-1-1A1,1,0,0,1,114.15,229Z"/><circle class="cls-2" cx="113.11" cy="229" r="0.79"/><circle class="cls-2" cx="113.11" cy="229" r="0.79"/><path class="cls-2" d="M114.15,225.87a1,1,0,1,1-1-1A1,1,0,0,1,114.15,225.87Z"/><circle class="cls-2" cx="113.11" cy="225.87" r="0.79"/><circle class="cls-2" cx="113.11" cy="225.87" r="0.79"/><circle class="cls-2" cx="113.11" cy="222.73" r="1.04"/><circle class="cls-2" cx="113.11" cy="222.73" r="0.79"/><circle class="cls-2" cx="113.11" cy="222.73" r="0.79"/><circle class="cls-2" cx="113.11" cy="219.59" r="1.04"/><circle class="cls-2" cx="113.11" cy="219.59" r="0.79"/><circle class="cls-2" cx="113.11" cy="219.59" r="0.79"/><path class="cls-2" d="M114.15,216.46a1,1,0,1,1-1-1A1,1,0,0,1,114.15,216.46Z"/><circle class="cls-2" cx="113.11" cy="216.46" r="0.79"/><circle class="cls-2" cx="113.11" cy="216.46" r="0.79"/><path class="cls-2" d="M114.15,213.32a1,1,0,1,1-1-1A1,1,0,0,1,114.15,213.32Z"/><circle class="cls-2" cx="113.11" cy="213.32" r="0.79"/><circle class="cls-2" cx="113.11" cy="213.32" r="0.79"/><circle class="cls-2" cx="113.11" cy="210.18" r="1.04"/><circle class="cls-2" cx="113.11" cy="210.18" r="0.79"/><circle class="cls-2" cx="113.11" cy="210.18" r="0.79"/><circle class="cls-2" cx="113.11" cy="207.04" r="1.04"/><circle class="cls-2" cx="113.11" cy="207.04" r="0.79"/><circle class="cls-2" cx="113.11" cy="207.04" r="0.79"/><path class="cls-2" d="M114.15,203.91a1,1,0,1,1-1-1A1,1,0,0,1,114.15,203.91Z"/><circle class="cls-2" cx="113.11" cy="203.91" r="0.79"/><circle class="cls-2" cx="113.11" cy="203.91" r="0.79"/><path class="cls-2" d="M114.15,200.77a1,1,0,1,1-1-1A1,1,0,0,1,114.15,200.77Z"/><circle class="cls-2" cx="113.11" cy="200.77" r="0.79"/><circle class="cls-2" cx="113.11" cy="200.77" r="0.79"/><circle class="cls-2" cx="113.11" cy="197.63" r="1.04"/><circle class="cls-2" cx="113.11" cy="197.63" r="0.79"/><circle class="cls-2" cx="113.11" cy="197.63" r="0.79"/><path class="cls-2" d="M114.15,194.49a1,1,0,1,1-1-1A1,1,0,0,1,114.15,194.49Z"/><circle class="cls-2" cx="113.11" cy="194.49" r="0.79"/><circle class="cls-2" cx="113.11" cy="194.49" r="0.79"/><path class="cls-2" d="M114.15,191.36a1,1,0,1,1-1-1A1,1,0,0,1,114.15,191.36Z"/><circle class="cls-2" cx="113.11" cy="191.36" r="0.79"/><circle class="cls-2" cx="113.11" cy="191.36" r="0.79"/><circle class="cls-2" cx="113.11" cy="188.22" r="1.04"/><path class="cls-2" d="M113.9,188.22a.79.79,0,1,1-.79-.79A.79.79,0,0,1,113.9,188.22Z"/><path class="cls-2" d="M113.9,188.22a.79.79,0,1,1-.79-.79A.79.79,0,0,1,113.9,188.22Z"/><circle class="cls-2" cx="113.11" cy="185.08" r="1.04"/><circle class="cls-2" cx="113.11" cy="185.08" r="0.79"/><circle class="cls-2" cx="113.11" cy="185.08" r="0.79"/><path class="cls-2" d="M211.67,250.4a3.09,3.09,0,1,1-3.09-3.09A3.09,3.09,0,0,1,211.67,250.4Z"/><path class="cls-2" d="M210.93,250.4a2.35,2.35,0,1,1-2.35-2.35A2.35,2.35,0,0,1,210.93,250.4Z"/><path class="cls-2" d="M210.93,250.4a2.35,2.35,0,1,1-2.35-2.35A2.35,2.35,0,0,1,210.93,250.4Z"/><path class="cls-2" d="M211.67,108a3.09,3.09,0,1,1-3.09-3.09A3.09,3.09,0,0,1,211.67,108Z"/><path class="cls-2" d="M210.93,108a2.35,2.35,0,1,1-2.35-2.35A2.35,2.35,0,0,1,210.93,108Z"/><path class="cls-2" d="M210.93,108a2.35,2.35,0,1,1-2.35-2.35A2.35,2.35,0,0,1,210.93,108Z"/><path class="cls-2" d="M77.5,200.06A8.93,8.93,0,1,0,86.43,209,8.94,8.94,0,0,0,77.5,200.06Zm0,17.22a8.3,8.3,0,1,1,8.3-8.3A8.31,8.31,0,0,1,77.5,217.28Z"/><path class="cls-2" d="M77.5,200.06A8.93,8.93,0,1,0,86.43,209,8.94,8.94,0,0,0,77.5,200.06Zm0,17.22a8.3,8.3,0,1,1,8.3-8.3A8.31,8.31,0,0,1,77.5,217.28Z"/><circle class="cls-2" cx="17.45" cy="208.98" r="3.09"/><path class="cls-2" d="M19.8,209a2.36,2.36,0,1,1-2.35-2.35A2.36,2.36,0,0,1,19.8,209Z"/><path class="cls-2" d="M19.8,209a2.36,2.36,0,1,1-2.35-2.35A2.36,2.36,0,0,1,19.8,209Z"/><circle class="cls-2" cx="17.45" cy="140.74" r="3.09"/><path class="cls-2" d="M19.8,140.74a2.36,2.36,0,1,1-2.35-2.35A2.35,2.35,0,0,1,19.8,140.74Z"/><path class="cls-2" d="M19.8,140.74a2.36,2.36,0,1,1-2.35-2.35A2.35,2.35,0,0,1,19.8,140.74Z"/><path class="cls-2" d="M17.45,200.06A8.93,8.93,0,1,0,26.37,209,8.93,8.93,0,0,0,17.45,200.06Zm0,17.22a8.3,8.3,0,1,1,8.29-8.3A8.31,8.31,0,0,1,17.45,217.28Z"/><path class="cls-2" d="M17.45,200.06A8.93,8.93,0,1,0,26.37,209,8.93,8.93,0,0,0,17.45,200.06Zm0,17.22a8.3,8.3,0,1,1,8.29-8.3A8.31,8.31,0,0,1,17.45,217.28Z"/><path class="cls-2" d="M208.58,99a8.93,8.93,0,1,0,8.93,8.93A8.94,8.94,0,0,0,208.58,99Zm0,17.23a8.3,8.3,0,1,1,8.3-8.3A8.31,8.31,0,0,1,208.58,116.26Z"/><path class="cls-2" d="M208.58,99a8.93,8.93,0,1,0,8.93,8.93A8.94,8.94,0,0,0,208.58,99Zm0,17.23a8.3,8.3,0,1,1,8.3-8.3A8.31,8.31,0,0,1,208.58,116.26Z"/><rect class="cls-3" x="90.96" y="206.46" width="45.6" height="0.76"/><rect class="cls-3" x="90.96" y="204.82" width="10.31" height="0.76"/><rect class="cls-3" x="102.28" y="204.82" width="34.28" height="0.76"/><rect class="cls-3" x="90.96" y="208.09" width="17.8" height="0.76"/><rect class="cls-3" x="90.96" y="203.19" width="27.03" height="0.76"/><rect class="cls-3" x="119" y="203.19" width="17.56" height="0.76"/><rect class="cls-3" x="90.96" y="214.04" width="45.6" height="0.76"/><rect class="cls-3" x="90.96" y="212.41" width="10.31" height="0.76"/><rect class="cls-3" x="102.28" y="212.41" width="34.28" height="0.76"/><rect class="cls-3" x="90.96" y="215.67" width="17.8" height="0.76"/><rect class="cls-3" x="90.96" y="210.78" width="27.03" height="0.76"/><rect class="cls-3" x="119" y="210.78" width="17.56" height="0.76"/><rect class="cls-3" x="90.96" y="221.63" width="45.6" height="0.76"/><rect class="cls-3" x="90.96" y="220" width="10.31" height="0.76"/><rect class="cls-3" x="102.28" y="220" width="34.28" height="0.76"/><rect class="cls-3" x="90.96" y="223.26" width="17.8" height="0.76"/><rect class="cls-3" x="90.96" y="218.37" width="27.03" height="0.76"/><rect class="cls-3" x="119" y="218.37" width="17.56" height="0.76"/><rect class="cls-3" x="90.96" y="229.22" width="45.6" height="0.76"/><rect class="cls-3" x="90.96" y="227.59" width="10.31" height="0.76"/><rect class="cls-3" x="102.28" y="227.59" width="34.28" height="0.76"/><rect class="cls-3" x="90.96" y="230.85" width="17.8" height="0.76"/><rect class="cls-3" x="90.96" y="225.96" width="27.03" height="0.76"/><rect class="cls-3" x="119" y="225.96" width="17.56" height="0.76"/><rect class="cls-3" x="90.96" y="236.81" width="45.6" height="0.76"/><rect class="cls-3" x="90.96" y="235.18" width="10.31" height="0.76"/><rect class="cls-3" x="102.28" y="235.18" width="34.28" height="0.76"/><rect class="cls-3" x="90.96" y="238.44" width="17.8" height="0.76"/><rect class="cls-3" x="90.96" y="233.55" width="27.03" height="0.76"/><rect class="cls-3" x="119" y="233.55" width="17.56" height="0.76"/><rect class="cls-3" x="90.96" y="244.39" width="45.6" height="0.76"/><rect class="cls-3" x="90.96" y="242.76" width="10.31" height="0.76"/><rect class="cls-3" x="102.28" y="242.76" width="34.28" height="0.76"/><rect class="cls-3" x="90.96" y="246.03" width="17.8" height="0.76"/><rect class="cls-3" x="90.96" y="241.13" width="27.03" height="0.76"/><rect class="cls-3" x="119" y="241.13" width="17.56" height="0.76"/><rect class="cls-3" x="90.96" y="251.98" width="45.6" height="0.76"/><rect class="cls-3" x="90.96" y="250.35" width="10.31" height="0.76"/><rect class="cls-3" x="102.28" y="250.35" width="34.28" height="0.76"/><rect class="cls-3" x="90.96" y="253.61" width="17.8" height="0.76"/><rect class="cls-3" x="90.96" y="248.72" width="27.03" height="0.76"/><rect class="cls-3" x="119" y="248.72" width="17.56" height="0.76"/><rect class="cls-3" x="90.96" y="259.57" width="45.6" height="0.76"/><rect class="cls-3" x="90.96" y="257.94" width="10.31" height="0.76"/><rect class="cls-3" x="102.28" y="257.94" width="34.28" height="0.76"/><rect class="cls-3" x="90.96" y="261.2" width="17.8" height="0.76"/><rect class="cls-3" x="90.96" y="256.31" width="27.03" height="0.76"/><rect class="cls-3" x="119" y="256.31" width="17.56" height="0.76"/><rect class="cls-3" x="90.96" y="267.16" width="45.6" height="0.76"/><rect class="cls-3" x="90.96" y="265.53" width="10.31" height="0.76"/><rect class="cls-3" x="102.28" y="265.53" width="34.28" height="0.76"/><rect class="cls-3" x="90.96" y="268.79" width="17.8" height="0.76"/><rect class="cls-3" x="90.96" y="263.9" width="27.03" height="0.76"/><rect class="cls-3" x="119" y="263.9" width="17.56" height="0.76"/></g></g></g></svg>